<svg width="34" height="31" viewBox="0 0 34 31" fill="none" xmlns="http://www.w3.org/2000/svg">
<path d="M24.8853 28.9999V23.2346C24.8853 20.3303 22.5643 17.9922 19.681 17.9922H14.3195C11.4363 17.9922 9.11523 20.3303 9.11523 23.2346V28.9999" stroke="#343549" stroke-width="2.3" stroke-linecap="round"/>
<path d="M26.7949 17.9922C29.6782 17.9922 31.9992 20.3302 31.9992 23.2346V25.9479" stroke="#343549" stroke-width="2.3" stroke-linecap="round"/>
<path d="M7.20432 17.9922C4.32103 17.9922 2 20.3302 2 23.2346V25.9479" stroke="#343549" stroke-width="2.3" stroke-linecap="round"/>
<path d="M17.0007 13.0533C20.0312 13.0533 22.4867 10.5789 22.4867 7.52663C22.4867 4.47438 20.0312 2 17.0007 2C13.9702 2 11.5137 4.47438 11.5137 7.52663C11.5137 10.5789 13.9702 13.0533 17.0007 13.0533Z" stroke="#343549" stroke-width="2.3"/>
<path d="M25.8965 11.8362C26.6472 11.8362 27.3852 11.637 28.0354 11.2587C28.6866 10.8802 29.2266 10.3362 29.6025 9.68085C29.9773 9.02556 30.1753 8.28219 30.1753 7.52553C30.1753 6.76884 29.9773 6.02547 29.6025 5.3702C29.2266 4.71489 28.6866 4.17076 28.0354 3.79239C27.3852 3.414 26.6472 3.21484 25.8965 3.21484" stroke="#343549" stroke-width="2.3" stroke-linecap="round"/>
<path d="M8.10699 11.8362C7.35626 11.8362 6.61822 11.637 5.96808 11.2587C5.31689 10.8802 4.77686 10.3362 4.40096 9.68085C4.02614 9.02556 3.82812 8.28219 3.82812 7.52553C3.82812 6.76884 4.02614 6.02547 4.40096 5.3702C4.77688 4.71489 5.31689 4.17076 5.96808 3.79239C6.61822 3.414 7.35626 3.21484 8.10699 3.21484" stroke="#343549" stroke-width="2.3" stroke-linecap="round"/>
</svg>
