<svg width="610" height="651" viewBox="0 0 610 651" fill="none" xmlns="http://www.w3.org/2000/svg">
<g filter="url(#filter0_d)">
<rect x="150.5" y="166.5" width="309" height="309" rx="24.5" fill="white" stroke="#EEF2F6"/>
<path d="M176.352 293.768V285.2H175.05V295H180.58V293.768H176.352ZM184.777 295.182C186.821 295.182 188.472 293.572 188.472 291.5C188.472 289.428 186.821 287.818 184.777 287.818C182.733 287.818 181.095 289.428 181.095 291.5C181.095 293.572 182.733 295.182 184.777 295.182ZM184.777 293.992C183.391 293.992 182.312 292.914 182.312 291.5C182.312 290.086 183.391 289.008 184.777 289.008C186.177 289.008 187.255 290.086 187.255 291.5C187.255 292.914 186.177 293.992 184.777 293.992ZM191.126 289.176V288H189.908V295H191.126V291.29C191.126 289.638 192.26 289.106 193.31 289.148V287.874C192.428 287.874 191.574 288.196 191.126 289.176ZM194.973 292.06H200.839C200.867 291.878 200.881 291.696 200.881 291.514C200.881 289.554 199.509 287.818 197.395 287.818C195.211 287.818 193.727 289.428 193.727 291.5C193.727 293.6 195.225 295.182 197.479 295.182C198.879 295.182 199.943 294.552 200.559 293.6L199.523 293.012C199.173 293.586 198.473 294.034 197.507 294.034C196.205 294.034 195.211 293.32 194.973 292.06ZM197.395 288.966C198.445 288.966 199.439 289.61 199.649 290.996H194.973C195.169 289.778 196.079 288.966 197.395 288.966ZM209.841 287.818C208.931 287.818 208.133 288.21 207.643 289.008C207.237 288.252 206.537 287.818 205.585 287.818C204.731 287.818 204.003 288.154 203.499 288.938V288H202.281V295H203.499V291.108C203.499 289.596 204.353 288.98 205.291 288.98C206.201 288.98 206.775 289.582 206.775 290.688V295H207.993V291.108C207.993 289.596 208.735 288.98 209.715 288.98C210.639 288.98 211.255 289.582 211.255 290.688V295H212.473V290.646C212.473 288.896 211.395 287.818 209.841 287.818ZM219.321 286.726C219.769 286.726 220.133 286.362 220.133 285.914C220.133 285.466 219.769 285.088 219.321 285.088C218.859 285.088 218.495 285.466 218.495 285.914C218.495 286.362 218.859 286.726 219.321 286.726ZM218.705 295H219.923V288H218.705V295ZM225.645 287.818C224.455 287.818 223.559 288.35 222.999 289.204V288H221.781V297.8H222.999V293.796C223.559 294.65 224.455 295.182 225.645 295.182C227.591 295.182 229.187 293.572 229.187 291.5C229.187 289.428 227.591 287.818 225.645 287.818ZM225.491 294.006C224.077 294.006 222.999 292.928 222.999 291.5C222.999 290.072 224.077 288.994 225.491 288.994C226.891 288.994 227.969 290.072 227.969 291.5C227.969 292.928 226.891 294.006 225.491 294.006ZM231.54 289.89C231.54 289.26 232.156 288.952 232.786 288.952C233.402 288.952 234.018 289.218 234.284 289.848L235.306 289.274C234.858 288.364 233.934 287.818 232.786 287.818C231.372 287.818 230.308 288.672 230.308 289.904C230.308 292.438 234.228 291.584 234.228 293.082C234.228 293.768 233.584 294.034 232.842 294.034C231.974 294.034 231.33 293.614 231.106 292.942L230.056 293.544C230.462 294.51 231.442 295.182 232.842 295.182C234.34 295.182 235.46 294.384 235.46 293.082C235.46 290.506 231.54 291.388 231.54 289.89ZM241.664 288V291.71C241.664 293.362 240.754 294.02 239.634 294.02C238.556 294.02 237.898 293.376 237.898 292.228V288H236.68V292.298C236.68 294.09 237.758 295.182 239.396 295.182C240.376 295.182 241.146 294.818 241.664 293.992V295H242.882V288H241.664ZM252.297 287.818C251.387 287.818 250.589 288.21 250.099 289.008C249.693 288.252 248.993 287.818 248.041 287.818C247.187 287.818 246.459 288.154 245.955 288.938V288H244.736V295H245.955V291.108C245.955 289.596 246.809 288.98 247.747 288.98C248.657 288.98 249.231 289.582 249.231 290.688V295H250.449V291.108C250.449 289.596 251.191 288.98 252.171 288.98C253.095 288.98 253.711 289.582 253.711 290.688V295H254.929V290.646C254.929 288.896 253.851 287.818 252.297 287.818ZM266.956 285.2V289.204C266.396 288.35 265.5 287.818 264.31 287.818C262.364 287.818 260.768 289.428 260.768 291.5C260.768 293.572 262.364 295.182 264.31 295.182C265.5 295.182 266.396 294.65 266.956 293.796V295H268.174V285.2H266.956ZM264.464 294.006C263.064 294.006 261.986 292.928 261.986 291.5C261.986 290.072 263.064 288.994 264.464 288.994C265.878 288.994 266.956 290.072 266.956 291.5C266.956 292.928 265.878 294.006 264.464 294.006ZM273.31 295.182C275.354 295.182 277.006 293.572 277.006 291.5C277.006 289.428 275.354 287.818 273.31 287.818C271.266 287.818 269.628 289.428 269.628 291.5C269.628 293.572 271.266 295.182 273.31 295.182ZM273.31 293.992C271.924 293.992 270.846 292.914 270.846 291.5C270.846 290.086 271.924 289.008 273.31 289.008C274.71 289.008 275.788 290.086 275.788 291.5C275.788 292.914 274.71 293.992 273.31 293.992ZM278.442 295H279.66V284.78H278.442V295ZM284.808 295.182C286.852 295.182 288.504 293.572 288.504 291.5C288.504 289.428 286.852 287.818 284.808 287.818C282.764 287.818 281.126 289.428 281.126 291.5C281.126 293.572 282.764 295.182 284.808 295.182ZM284.808 293.992C283.422 293.992 282.344 292.914 282.344 291.5C282.344 290.086 283.422 289.008 284.808 289.008C286.208 289.008 287.286 290.086 287.286 291.5C287.286 292.914 286.208 293.992 284.808 293.992ZM291.158 289.176V288H289.94V295H291.158V291.29C291.158 289.638 292.292 289.106 293.342 289.148V287.874C292.46 287.874 291.606 288.196 291.158 289.176ZM300.126 289.89C300.126 289.26 300.742 288.952 301.372 288.952C301.988 288.952 302.604 289.218 302.87 289.848L303.892 289.274C303.444 288.364 302.52 287.818 301.372 287.818C299.958 287.818 298.894 288.672 298.894 289.904C298.894 292.438 302.814 291.584 302.814 293.082C302.814 293.768 302.17 294.034 301.428 294.034C300.56 294.034 299.916 293.614 299.692 292.942L298.642 293.544C299.048 294.51 300.028 295.182 301.428 295.182C302.926 295.182 304.046 294.384 304.046 293.082C304.046 290.506 300.126 291.388 300.126 289.89ZM306.036 286.726C306.484 286.726 306.848 286.362 306.848 285.914C306.848 285.466 306.484 285.088 306.036 285.088C305.574 285.088 305.21 285.466 305.21 285.914C305.21 286.362 305.574 286.726 306.036 286.726ZM305.42 295H306.638V288H305.42V295ZM312.304 289.176V288H310.442V286.04L309.224 286.404V288H307.838V289.176H309.224V292.97C309.224 294.72 310.204 295.28 312.304 295V293.908C311.058 293.964 310.442 294.034 310.442 292.97V289.176H312.304ZM324.126 288V289.204C323.566 288.35 322.67 287.818 321.48 287.818C319.534 287.818 317.938 289.428 317.938 291.5C317.938 293.572 319.534 295.182 321.48 295.182C322.67 295.182 323.566 294.65 324.126 293.796V295H325.344V288H324.126ZM321.634 294.006C320.234 294.006 319.156 292.928 319.156 291.5C319.156 290.072 320.234 288.994 321.634 288.994C323.048 288.994 324.126 290.072 324.126 291.5C324.126 292.928 323.048 294.006 321.634 294.006ZM334.75 287.818C333.84 287.818 333.042 288.21 332.552 289.008C332.146 288.252 331.446 287.818 330.494 287.818C329.64 287.818 328.912 288.154 328.408 288.938V288H327.19V295H328.408V291.108C328.408 289.596 329.262 288.98 330.2 288.98C331.11 288.98 331.684 289.582 331.684 290.688V295H332.902V291.108C332.902 289.596 333.644 288.98 334.624 288.98C335.548 288.98 336.164 289.582 336.164 290.688V295H337.382V290.646C337.382 288.896 336.304 287.818 334.75 287.818ZM339.924 292.06H345.79C345.818 291.878 345.832 291.696 345.832 291.514C345.832 289.554 344.46 287.818 342.346 287.818C340.162 287.818 338.678 289.428 338.678 291.5C338.678 293.6 340.176 295.182 342.43 295.182C343.83 295.182 344.894 294.552 345.51 293.6L344.474 293.012C344.124 293.586 343.424 294.034 342.458 294.034C341.156 294.034 340.162 293.32 339.924 292.06ZM342.346 288.966C343.396 288.966 344.39 289.61 344.6 290.996H339.924C340.12 289.778 341.03 288.966 342.346 288.966ZM350.836 289.176V288H348.974V286.04L347.756 286.404V288H346.37V289.176H347.756V292.97C347.756 294.72 348.736 295.28 350.836 295V293.908C349.59 293.964 348.974 294.034 348.974 292.97V289.176H350.836ZM354.139 293.558H352.739L352.179 296.96H353.229L354.139 293.558ZM363.693 295.182C365.065 295.182 366.255 294.454 366.843 293.362L365.807 292.76C365.415 293.488 364.645 293.978 363.693 293.978C362.293 293.978 361.229 292.9 361.229 291.5C361.229 290.086 362.293 289.008 363.693 289.008C364.631 289.008 365.415 289.498 365.765 290.24L366.787 289.652C366.255 288.546 365.079 287.818 363.693 287.818C361.579 287.818 360.011 289.428 360.011 291.5C360.011 293.572 361.579 295.182 363.693 295.182ZM371.239 295.182C373.283 295.182 374.935 293.572 374.935 291.5C374.935 289.428 373.283 287.818 371.239 287.818C369.195 287.818 367.557 289.428 367.557 291.5C367.557 293.572 369.195 295.182 371.239 295.182ZM371.239 293.992C369.853 293.992 368.775 292.914 368.775 291.5C368.775 290.086 369.853 289.008 371.239 289.008C372.639 289.008 373.717 290.086 373.717 291.5C373.717 292.914 372.639 293.992 371.239 293.992ZM379.857 287.818C378.877 287.818 378.107 288.182 377.589 289.008V288H376.371V295H377.589V291.29C377.589 289.638 378.499 288.98 379.619 288.98C380.697 288.98 381.355 289.624 381.355 290.772V295H382.573V290.702C382.573 288.91 381.495 287.818 379.857 287.818ZM385.324 289.89C385.324 289.26 385.94 288.952 386.57 288.952C387.186 288.952 387.802 289.218 388.068 289.848L389.09 289.274C388.642 288.364 387.718 287.818 386.57 287.818C385.156 287.818 384.092 288.672 384.092 289.904C384.092 292.438 388.012 291.584 388.012 293.082C388.012 293.768 387.368 294.034 386.626 294.034C385.758 294.034 385.114 293.614 384.89 292.942L383.84 293.544C384.246 294.51 385.226 295.182 386.626 295.182C388.124 295.182 389.244 294.384 389.244 293.082C389.244 290.506 385.324 291.388 385.324 289.89ZM391.348 292.06H397.214C397.242 291.878 397.256 291.696 397.256 291.514C397.256 289.554 395.884 287.818 393.77 287.818C391.586 287.818 390.102 289.428 390.102 291.5C390.102 293.6 391.6 295.182 393.854 295.182C395.254 295.182 396.318 294.552 396.934 293.6L395.898 293.012C395.548 293.586 394.848 294.034 393.882 294.034C392.58 294.034 391.586 293.32 391.348 292.06ZM393.77 288.966C394.82 288.966 395.814 289.61 396.024 290.996H391.348C391.544 289.778 392.454 288.966 393.77 288.966ZM401.933 295.182C403.305 295.182 404.495 294.454 405.083 293.362L404.047 292.76C403.655 293.488 402.885 293.978 401.933 293.978C400.533 293.978 399.469 292.9 399.469 291.5C399.469 290.086 400.533 289.008 401.933 289.008C402.871 289.008 403.655 289.498 404.005 290.24L405.027 289.652C404.495 288.546 403.319 287.818 401.933 287.818C399.819 287.818 398.251 289.428 398.251 291.5C398.251 293.572 399.819 295.182 401.933 295.182ZM410.093 289.176V288H408.231V286.04L407.013 286.404V288H405.627V289.176H407.013V292.97C407.013 294.72 407.993 295.28 410.093 295V293.908C408.847 293.964 408.231 294.034 408.231 292.97V289.176H410.093ZM412.034 292.06H417.9C417.928 291.878 417.942 291.696 417.942 291.514C417.942 289.554 416.57 287.818 414.456 287.818C412.272 287.818 410.788 289.428 410.788 291.5C410.788 293.6 412.286 295.182 414.54 295.182C415.94 295.182 417.004 294.552 417.62 293.6L416.584 293.012C416.234 293.586 415.534 294.034 414.568 294.034C413.266 294.034 412.272 293.32 412.034 292.06ZM414.456 288.966C415.506 288.966 416.5 289.61 416.71 290.996H412.034C412.23 289.778 413.14 288.966 414.456 288.966ZM422.945 289.176V288H421.083V286.04L419.865 286.404V288H418.479V289.176H419.865V292.97C419.865 294.72 420.845 295.28 422.945 295V293.908C421.699 293.964 421.083 294.034 421.083 292.97V289.176H422.945ZM429.258 288V291.71C429.258 293.362 428.348 294.02 427.228 294.02C426.15 294.02 425.492 293.376 425.492 292.228V288H424.274V292.298C424.274 294.09 425.352 295.182 426.99 295.182C427.97 295.182 428.74 294.818 429.258 293.992V295H430.476V288H429.258ZM433.548 289.176V288H432.33V295H433.548V291.29C433.548 289.638 434.682 289.106 435.732 289.148V287.874C434.85 287.874 433.996 288.196 433.548 289.176ZM180.72 313V314.204C180.16 313.35 179.264 312.818 178.074 312.818C176.128 312.818 174.532 314.428 174.532 316.5C174.532 318.572 176.128 320.182 178.074 320.182C179.264 320.182 180.16 319.65 180.72 318.796V320H181.938V313H180.72ZM178.228 319.006C176.828 319.006 175.75 317.928 175.75 316.5C175.75 315.072 176.828 313.994 178.228 313.994C179.642 313.994 180.72 315.072 180.72 316.5C180.72 317.928 179.642 319.006 178.228 319.006ZM189.579 310.2V314.204C189.019 313.35 188.123 312.818 186.933 312.818C184.987 312.818 183.391 314.428 183.391 316.5C183.391 318.572 184.987 320.182 186.933 320.182C188.123 320.182 189.019 319.65 189.579 318.796V320H190.797V310.2H189.579ZM187.087 319.006C185.687 319.006 184.609 317.928 184.609 316.5C184.609 315.072 185.687 313.994 187.087 313.994C188.501 313.994 189.579 315.072 189.579 316.5C189.579 317.928 188.501 319.006 187.087 319.006ZM193.259 311.726C193.707 311.726 194.071 311.362 194.071 310.914C194.071 310.466 193.707 310.088 193.259 310.088C192.797 310.088 192.433 310.466 192.433 310.914C192.433 311.362 192.797 311.726 193.259 311.726ZM192.643 320H193.861V313H192.643V320ZM199.583 312.818C198.393 312.818 197.497 313.35 196.937 314.204V313H195.719V322.8H196.937V318.796C197.497 319.65 198.393 320.182 199.583 320.182C201.529 320.182 203.125 318.572 203.125 316.5C203.125 314.428 201.529 312.818 199.583 312.818ZM199.429 319.006C198.015 319.006 196.937 317.928 196.937 316.5C196.937 315.072 198.015 313.994 199.429 313.994C200.829 313.994 201.907 315.072 201.907 316.5C201.907 317.928 200.829 319.006 199.429 319.006ZM205.194 311.726C205.642 311.726 206.006 311.362 206.006 310.914C206.006 310.466 205.642 310.088 205.194 310.088C204.732 310.088 204.368 310.466 204.368 310.914C204.368 311.362 204.732 311.726 205.194 311.726ZM204.578 320H205.796V313H204.578V320ZM208.691 314.89C208.691 314.26 209.307 313.952 209.937 313.952C210.553 313.952 211.169 314.218 211.435 314.848L212.457 314.274C212.009 313.364 211.085 312.818 209.937 312.818C208.523 312.818 207.459 313.672 207.459 314.904C207.459 317.438 211.379 316.584 211.379 318.082C211.379 318.768 210.735 319.034 209.993 319.034C209.125 319.034 208.481 318.614 208.257 317.942L207.207 318.544C207.613 319.51 208.593 320.182 209.993 320.182C211.491 320.182 212.611 319.384 212.611 318.082C212.611 315.506 208.691 316.388 208.691 314.89ZM217.152 320.182C218.524 320.182 219.714 319.454 220.302 318.362L219.266 317.76C218.874 318.488 218.104 318.978 217.152 318.978C215.752 318.978 214.688 317.9 214.688 316.5C214.688 315.086 215.752 314.008 217.152 314.008C218.09 314.008 218.874 314.498 219.224 315.24L220.246 314.652C219.714 313.546 218.538 312.818 217.152 312.818C215.038 312.818 213.47 314.428 213.47 316.5C213.47 318.572 215.038 320.182 217.152 320.182ZM222.12 311.726C222.568 311.726 222.932 311.362 222.932 310.914C222.932 310.466 222.568 310.088 222.12 310.088C221.658 310.088 221.294 310.466 221.294 310.914C221.294 311.362 221.658 311.726 222.12 311.726ZM221.504 320H222.722V313H221.504V320ZM228.066 312.818C227.086 312.818 226.316 313.182 225.798 314.008V313H224.58V320H225.798V316.29C225.798 314.638 226.708 313.98 227.828 313.98C228.906 313.98 229.564 314.624 229.564 315.772V320H230.782V315.702C230.782 313.91 229.704 312.818 228.066 312.818ZM238.293 313V314.204C237.733 313.35 236.837 312.818 235.661 312.818C233.673 312.818 232.091 314.428 232.091 316.458C232.091 318.502 233.673 320.112 235.661 320.112C236.837 320.112 237.733 319.566 238.293 318.712V319.706C238.293 321.022 237.411 321.848 235.955 321.848C234.583 321.848 233.995 321.33 233.673 320.672L232.609 321.274C233.183 322.38 234.359 322.982 235.927 322.982C237.747 322.982 239.497 321.89 239.497 319.706V313H238.293ZM235.801 318.95C234.387 318.95 233.309 317.872 233.309 316.458C233.309 315.058 234.387 313.98 235.801 313.98C237.215 313.98 238.293 315.058 238.293 316.458C238.293 317.872 237.215 318.95 235.801 318.95ZM254.109 317.06H259.975C260.003 316.878 260.017 316.696 260.017 316.514C260.017 314.554 258.645 312.818 256.531 312.818C254.347 312.818 252.863 314.428 252.863 316.5C252.863 318.6 254.361 320.182 256.615 320.182C258.015 320.182 259.079 319.552 259.695 318.6L258.659 318.012C258.309 318.586 257.609 319.034 256.643 319.034C255.341 319.034 254.347 318.32 254.109 317.06ZM256.531 313.966C257.581 313.966 258.575 314.61 258.785 315.996H254.109C254.305 314.778 255.215 313.966 256.531 313.966ZM261.417 320H262.635V309.78H261.417V320ZM265.109 311.726C265.557 311.726 265.921 311.362 265.921 310.914C265.921 310.466 265.557 310.088 265.109 310.088C264.647 310.088 264.283 310.466 264.283 310.914C264.283 311.362 264.647 311.726 265.109 311.726ZM264.493 320H265.711V313H264.493V320ZM271.378 314.176V313H269.516V311.04L268.298 311.404V313H266.912V314.176H268.298V317.97C268.298 319.72 269.278 320.28 271.378 320V318.908C270.132 318.964 269.516 319.034 269.516 317.97V314.176H271.378ZM273.631 320.154C274.149 320.154 274.541 319.748 274.541 319.244C274.541 318.74 274.149 318.334 273.631 318.334C273.127 318.334 272.721 318.74 272.721 319.244C272.721 319.748 273.127 320.154 273.631 320.154ZM293.946 311.432V310.2H288.304V320H289.606V315.842H293.764V314.61H289.606V311.432H293.946ZM300.227 313V316.71C300.227 318.362 299.317 319.02 298.197 319.02C297.119 319.02 296.461 318.376 296.461 317.228V313H295.243V317.298C295.243 319.09 296.321 320.182 297.959 320.182C298.939 320.182 299.709 319.818 300.227 318.992V320H301.445V313H300.227ZM304.335 314.89C304.335 314.26 304.951 313.952 305.581 313.952C306.197 313.952 306.813 314.218 307.079 314.848L308.101 314.274C307.653 313.364 306.729 312.818 305.581 312.818C304.167 312.818 303.103 313.672 303.103 314.904C303.103 317.438 307.023 316.584 307.023 318.082C307.023 318.768 306.379 319.034 305.637 319.034C304.769 319.034 304.125 318.614 303.901 317.942L302.851 318.544C303.257 319.51 304.237 320.182 305.637 320.182C307.135 320.182 308.255 319.384 308.255 318.082C308.255 315.506 304.335 316.388 304.335 314.89ZM312.796 320.182C314.168 320.182 315.358 319.454 315.946 318.362L314.91 317.76C314.518 318.488 313.748 318.978 312.796 318.978C311.396 318.978 310.332 317.9 310.332 316.5C310.332 315.086 311.396 314.008 312.796 314.008C313.734 314.008 314.518 314.498 314.868 315.24L315.89 314.652C315.358 313.546 314.182 312.818 312.796 312.818C310.682 312.818 309.114 314.428 309.114 316.5C309.114 318.572 310.682 320.182 312.796 320.182ZM317.907 317.06H323.773C323.801 316.878 323.815 316.696 323.815 316.514C323.815 314.554 322.443 312.818 320.329 312.818C318.145 312.818 316.661 314.428 316.661 316.5C316.661 318.6 318.159 320.182 320.413 320.182C321.813 320.182 322.877 319.552 323.493 318.6L322.457 318.012C322.107 318.586 321.407 319.034 320.441 319.034C319.139 319.034 318.145 318.32 317.907 317.06ZM320.329 313.966C321.379 313.966 322.373 314.61 322.583 315.996H317.907C318.103 314.778 319.013 313.966 320.329 313.966ZM342.938 313V314.204C342.378 313.35 341.482 312.818 340.306 312.818C338.318 312.818 336.736 314.428 336.736 316.458C336.736 318.502 338.318 320.112 340.306 320.112C341.482 320.112 342.378 319.566 342.938 318.712V319.706C342.938 321.022 342.056 321.848 340.6 321.848C339.228 321.848 338.64 321.33 338.318 320.672L337.254 321.274C337.828 322.38 339.004 322.982 340.572 322.982C342.392 322.982 344.142 321.89 344.142 319.706V313H342.938ZM340.446 318.95C339.032 318.95 337.954 317.872 337.954 316.458C337.954 315.058 339.032 313.98 340.446 313.98C341.86 313.98 342.938 315.058 342.938 316.458C342.938 317.872 341.86 318.95 340.446 318.95ZM347.205 314.176V313H345.987V320H347.205V316.29C347.205 314.638 348.339 314.106 349.389 314.148V312.874C348.507 312.874 347.653 313.196 347.205 314.176ZM355.994 313V314.204C355.434 313.35 354.538 312.818 353.348 312.818C351.402 312.818 349.806 314.428 349.806 316.5C349.806 318.572 351.402 320.182 353.348 320.182C354.538 320.182 355.434 319.65 355.994 318.796V320H357.212V313H355.994ZM353.502 319.006C352.102 319.006 351.024 317.928 351.024 316.5C351.024 315.072 352.102 313.994 353.502 313.994C354.916 313.994 355.994 315.072 355.994 316.5C355.994 317.928 354.916 319.006 353.502 319.006ZM363.958 313L361.76 318.698L359.562 313H358.246L361.046 320H362.474L365.274 313H363.958ZM366.92 311.726C367.368 311.726 367.732 311.362 367.732 310.914C367.732 310.466 367.368 310.088 366.92 310.088C366.458 310.088 366.094 310.466 366.094 310.914C366.094 311.362 366.458 311.726 366.92 311.726ZM366.304 320H367.522V313H366.304V320ZM375.176 310.2V314.204C374.616 313.35 373.72 312.818 372.53 312.818C370.584 312.818 368.988 314.428 368.988 316.5C368.988 318.572 370.584 320.182 372.53 320.182C373.72 320.182 374.616 319.65 375.176 318.796V320H376.394V310.2H375.176ZM372.684 319.006C371.284 319.006 370.206 317.928 370.206 316.5C370.206 315.072 371.284 313.994 372.684 313.994C374.098 313.994 375.176 315.072 375.176 316.5C375.176 317.928 374.098 319.006 372.684 319.006ZM384.035 313V314.204C383.475 313.35 382.579 312.818 381.389 312.818C379.443 312.818 377.847 314.428 377.847 316.5C377.847 318.572 379.443 320.182 381.389 320.182C382.579 320.182 383.475 319.65 384.035 318.796V320H385.253V313H384.035ZM381.543 319.006C380.143 319.006 379.065 317.928 379.065 316.5C379.065 315.072 380.143 313.994 381.543 313.994C382.957 313.994 384.035 315.072 384.035 316.5C384.035 317.928 382.957 319.006 381.543 319.006ZM399.628 311.726C400.076 311.726 400.44 311.362 400.44 310.914C400.44 310.466 400.076 310.088 399.628 310.088C399.166 310.088 398.802 310.466 398.802 310.914C398.802 311.362 399.166 311.726 399.628 311.726ZM399.012 320H400.23V313H399.012V320ZM405.952 312.818C404.762 312.818 403.866 313.35 403.306 314.204V313H402.088V322.8H403.306V318.796C403.866 319.65 404.762 320.182 405.952 320.182C407.898 320.182 409.494 318.572 409.494 316.5C409.494 314.428 407.898 312.818 405.952 312.818ZM405.798 319.006C404.384 319.006 403.306 317.928 403.306 316.5C403.306 315.072 404.384 313.994 405.798 313.994C407.198 313.994 408.276 315.072 408.276 316.5C408.276 317.928 407.198 319.006 405.798 319.006ZM411.847 314.89C411.847 314.26 412.463 313.952 413.093 313.952C413.709 313.952 414.325 314.218 414.591 314.848L415.613 314.274C415.165 313.364 414.241 312.818 413.093 312.818C411.679 312.818 410.615 313.672 410.615 314.904C410.615 317.438 414.535 316.584 414.535 318.082C414.535 318.768 413.891 319.034 413.149 319.034C412.281 319.034 411.637 318.614 411.413 317.942L410.363 318.544C410.769 319.51 411.749 320.182 413.149 320.182C414.647 320.182 415.767 319.384 415.767 318.082C415.767 315.506 411.847 316.388 411.847 314.89ZM421.971 313V316.71C421.971 318.362 421.061 319.02 419.941 319.02C418.863 319.02 418.205 318.376 418.205 317.228V313H416.987V317.298C416.987 319.09 418.065 320.182 419.703 320.182C420.683 320.182 421.453 319.818 421.971 318.992V320H423.189V313H421.971ZM432.603 312.818C431.693 312.818 430.895 313.21 430.405 314.008C429.999 313.252 429.299 312.818 428.347 312.818C427.493 312.818 426.765 313.154 426.261 313.938V313H425.043V320H426.261V316.108C426.261 314.596 427.115 313.98 428.053 313.98C428.963 313.98 429.537 314.582 429.537 315.688V320H430.755V316.108C430.755 314.596 431.497 313.98 432.477 313.98C433.401 313.98 434.017 314.582 434.017 315.688V320H435.235V315.646C435.235 313.896 434.157 312.818 432.603 312.818ZM175.974 339.89C175.974 339.26 176.59 338.952 177.22 338.952C177.836 338.952 178.452 339.218 178.718 339.848L179.74 339.274C179.292 338.364 178.368 337.818 177.22 337.818C175.806 337.818 174.742 338.672 174.742 339.904C174.742 342.438 178.662 341.584 178.662 343.082C178.662 343.768 178.018 344.034 177.276 344.034C176.408 344.034 175.764 343.614 175.54 342.942L174.49 343.544C174.896 344.51 175.876 345.182 177.276 345.182C178.774 345.182 179.894 344.384 179.894 343.082C179.894 340.506 175.974 341.388 175.974 339.89ZM186.941 338V339.204C186.381 338.35 185.485 337.818 184.295 337.818C182.349 337.818 180.753 339.428 180.753 341.5C180.753 343.572 182.349 345.182 184.295 345.182C185.485 345.182 186.381 344.65 186.941 343.796V345H188.159V338H186.941ZM184.449 344.006C183.049 344.006 181.971 342.928 181.971 341.5C181.971 340.072 183.049 338.994 184.449 338.994C185.863 338.994 186.941 340.072 186.941 341.5C186.941 342.928 185.863 344.006 184.449 344.006ZM193.868 337.818C192.678 337.818 191.782 338.35 191.222 339.204V338H190.004V347.8H191.222V343.796C191.782 344.65 192.678 345.182 193.868 345.182C195.814 345.182 197.41 343.572 197.41 341.5C197.41 339.428 195.814 337.818 193.868 337.818ZM193.714 344.006C192.3 344.006 191.222 342.928 191.222 341.5C191.222 340.072 192.3 338.994 193.714 338.994C195.114 338.994 196.192 340.072 196.192 341.5C196.192 342.928 195.114 344.006 193.714 344.006ZM199.479 336.726C199.927 336.726 200.291 336.362 200.291 335.914C200.291 335.466 199.927 335.088 199.479 335.088C199.017 335.088 198.653 335.466 198.653 335.914C198.653 336.362 199.017 336.726 199.479 336.726ZM198.863 345H200.081V338H198.863V345ZM202.794 342.06H208.66C208.688 341.878 208.702 341.696 208.702 341.514C208.702 339.554 207.33 337.818 205.216 337.818C203.032 337.818 201.548 339.428 201.548 341.5C201.548 343.6 203.046 345.182 205.3 345.182C206.7 345.182 207.764 344.552 208.38 343.6L207.344 343.012C206.994 343.586 206.294 344.034 205.328 344.034C204.026 344.034 203.032 343.32 202.794 342.06ZM205.216 338.966C206.266 338.966 207.26 339.61 207.47 340.996H202.794C202.99 339.778 203.9 338.966 205.216 338.966ZM213.588 337.818C212.608 337.818 211.838 338.182 211.32 339.008V338H210.102V345H211.32V341.29C211.32 339.638 212.23 338.98 213.35 338.98C214.428 338.98 215.086 339.624 215.086 340.772V345H216.304V340.702C216.304 338.91 215.226 337.818 213.588 337.818ZM219.824 343.558H218.424L217.864 346.96H218.914L219.824 343.558ZM233.869 338V339.204C233.309 338.35 232.413 337.818 231.223 337.818C229.277 337.818 227.681 339.428 227.681 341.5C227.681 343.572 229.277 345.182 231.223 345.182C232.413 345.182 233.309 344.65 233.869 343.796V345H235.087V338H233.869ZM231.377 344.006C229.977 344.006 228.899 342.928 228.899 341.5C228.899 340.072 229.977 338.994 231.377 338.994C232.791 338.994 233.869 340.072 233.869 341.5C233.869 342.928 232.791 344.006 231.377 344.006ZM240.741 339.176V338H238.879V336.04L237.661 336.404V338H236.275V339.176H237.661V342.97C237.661 344.72 238.641 345.28 240.741 345V343.908C239.495 343.964 238.879 344.034 238.879 342.97V339.176H240.741ZM252.56 339.176V338H250.698V336.04L249.48 336.404V338H248.094V339.176H249.48V342.97C249.48 344.72 250.46 345.28 252.56 345V343.908C251.314 343.964 250.698 344.034 250.698 342.97V339.176H252.56ZM254.5 342.06H260.366C260.394 341.878 260.408 341.696 260.408 341.514C260.408 339.554 259.036 337.818 256.922 337.818C254.738 337.818 253.254 339.428 253.254 341.5C253.254 343.6 254.752 345.182 257.006 345.182C258.406 345.182 259.47 344.552 260.086 343.6L259.05 343.012C258.7 343.586 258 344.034 257.034 344.034C255.732 344.034 254.738 343.32 254.5 342.06ZM256.922 338.966C257.972 338.966 258.966 339.61 259.176 340.996H254.5C254.696 339.778 255.606 338.966 256.922 338.966ZM269.368 337.818C268.458 337.818 267.66 338.21 267.17 339.008C266.764 338.252 266.064 337.818 265.112 337.818C264.258 337.818 263.53 338.154 263.026 338.938V338H261.808V345H263.026V341.108C263.026 339.596 263.88 338.98 264.818 338.98C265.728 338.98 266.302 339.582 266.302 340.688V345H267.52V341.108C267.52 339.596 268.262 338.98 269.242 338.98C270.166 338.98 270.782 339.582 270.782 340.688V345H272V340.646C272 338.896 270.922 337.818 269.368 337.818ZM277.553 337.818C276.363 337.818 275.467 338.35 274.907 339.204V338H273.689V347.8H274.907V343.796C275.467 344.65 276.363 345.182 277.553 345.182C279.499 345.182 281.095 343.572 281.095 341.5C281.095 339.428 279.499 337.818 277.553 337.818ZM277.399 344.006C275.985 344.006 274.907 342.928 274.907 341.5C274.907 340.072 275.985 338.994 277.399 338.994C278.799 338.994 279.877 340.072 279.877 341.5C279.877 342.928 278.799 344.006 277.399 344.006ZM287.379 338V341.71C287.379 343.362 286.469 344.02 285.349 344.02C284.271 344.02 283.613 343.376 283.613 342.228V338H282.395V342.298C282.395 344.09 283.473 345.182 285.111 345.182C286.091 345.182 286.861 344.818 287.379 343.992V345H288.597V338H287.379ZM291.487 339.89C291.487 339.26 292.103 338.952 292.733 338.952C293.349 338.952 293.965 339.218 294.231 339.848L295.253 339.274C294.805 338.364 293.881 337.818 292.733 337.818C291.319 337.818 290.255 338.672 290.255 339.904C290.255 342.438 294.175 341.584 294.175 343.082C294.175 343.768 293.531 344.034 292.789 344.034C291.921 344.034 291.277 343.614 291.053 342.942L290.003 343.544C290.409 344.51 291.389 345.182 292.789 345.182C294.287 345.182 295.407 344.384 295.407 343.082C295.407 340.506 291.487 341.388 291.487 339.89ZM309.174 338V339.204C308.614 338.35 307.718 337.818 306.528 337.818C304.582 337.818 302.986 339.428 302.986 341.5C302.986 343.572 304.582 345.182 306.528 345.182C307.718 345.182 308.614 344.65 309.174 343.796V347.8H310.392V338H309.174ZM306.682 344.006C305.282 344.006 304.204 342.928 304.204 341.5C304.204 340.072 305.282 338.994 306.682 338.994C308.096 338.994 309.174 340.072 309.174 341.5C309.174 342.928 308.096 344.006 306.682 344.006ZM317.067 338V341.71C317.067 343.362 316.157 344.02 315.037 344.02C313.959 344.02 313.301 343.376 313.301 342.228V338H312.083V342.298C312.083 344.09 313.161 345.182 314.799 345.182C315.779 345.182 316.549 344.818 317.067 343.992V345H318.285V338H317.067ZM325.935 338V339.204C325.375 338.35 324.479 337.818 323.289 337.818C321.343 337.818 319.747 339.428 319.747 341.5C319.747 343.572 321.343 345.182 323.289 345.182C324.479 345.182 325.375 344.65 325.935 343.796V345H327.153V338H325.935ZM323.443 344.006C322.043 344.006 320.965 342.928 320.965 341.5C320.965 340.072 322.043 338.994 323.443 338.994C324.857 338.994 325.935 340.072 325.935 341.5C325.935 342.928 324.857 344.006 323.443 344.006ZM336.559 337.818C335.649 337.818 334.851 338.21 334.361 339.008C333.955 338.252 333.255 337.818 332.303 337.818C331.449 337.818 330.721 338.154 330.217 338.938V338H328.999V345H330.217V341.108C330.217 339.596 331.071 338.98 332.009 338.98C332.919 338.98 333.493 339.582 333.493 340.688V345H334.711V341.108C334.711 339.596 335.453 338.98 336.433 338.98C337.357 338.98 337.973 339.582 337.973 340.688V345H339.191V340.646C339.191 338.896 338.113 337.818 336.559 337.818ZM348.024 336.726C348.472 336.726 348.836 336.362 348.836 335.914C348.836 335.466 348.472 335.088 348.024 335.088C347.562 335.088 347.198 335.466 347.198 335.914C347.198 336.362 347.562 336.726 348.024 336.726ZM347.408 345H348.626V338H347.408V345ZM358.044 337.818C357.134 337.818 356.336 338.21 355.846 339.008C355.44 338.252 354.74 337.818 353.788 337.818C352.934 337.818 352.206 338.154 351.702 338.938V338H350.484V345H351.702V341.108C351.702 339.596 352.556 338.98 353.494 338.98C354.404 338.98 354.978 339.582 354.978 340.688V345H356.196V341.108C356.196 339.596 356.938 338.98 357.918 338.98C358.842 338.98 359.458 339.582 359.458 340.688V345H360.676V340.646C360.676 338.896 359.598 337.818 358.044 337.818ZM366.229 337.818C365.039 337.818 364.143 338.35 363.583 339.204V338H362.365V347.8H363.583V343.796C364.143 344.65 365.039 345.182 366.229 345.182C368.175 345.182 369.771 343.572 369.771 341.5C369.771 339.428 368.175 337.818 366.229 337.818ZM366.075 344.006C364.661 344.006 363.583 342.928 363.583 341.5C363.583 340.072 364.661 338.994 366.075 338.994C367.475 338.994 368.553 340.072 368.553 341.5C368.553 342.928 367.475 344.006 366.075 344.006ZM372.078 342.06H377.944C377.972 341.878 377.986 341.696 377.986 341.514C377.986 339.554 376.614 337.818 374.5 337.818C372.316 337.818 370.832 339.428 370.832 341.5C370.832 343.6 372.33 345.182 374.584 345.182C375.984 345.182 377.048 344.552 377.664 343.6L376.628 343.012C376.278 343.586 375.578 344.034 374.612 344.034C373.31 344.034 372.316 343.32 372.078 342.06ZM374.5 338.966C375.55 338.966 376.544 339.61 376.754 340.996H372.078C372.274 339.778 373.184 338.966 374.5 338.966ZM380.604 339.176V338H379.386V345H380.604V341.29C380.604 339.638 381.738 339.106 382.788 339.148V337.874C381.906 337.874 381.052 338.196 380.604 339.176ZM389.393 335.2V339.204C388.833 338.35 387.937 337.818 386.747 337.818C384.801 337.818 383.205 339.428 383.205 341.5C383.205 343.572 384.801 345.182 386.747 345.182C387.937 345.182 388.833 344.65 389.393 343.796V345H390.611V335.2H389.393ZM386.901 344.006C385.501 344.006 384.423 342.928 384.423 341.5C384.423 340.072 385.501 338.994 386.901 338.994C388.315 338.994 389.393 340.072 389.393 341.5C389.393 342.928 388.315 344.006 386.901 344.006ZM393.072 336.726C393.52 336.726 393.884 336.362 393.884 335.914C393.884 335.466 393.52 335.088 393.072 335.088C392.61 335.088 392.246 335.466 392.246 335.914C392.246 336.362 392.61 336.726 393.072 336.726ZM392.456 345H393.674V338H392.456V345ZM396.387 342.06H402.253C402.281 341.878 402.295 341.696 402.295 341.514C402.295 339.554 400.923 337.818 398.809 337.818C396.625 337.818 395.141 339.428 395.141 341.5C395.141 343.6 396.639 345.182 398.893 345.182C400.293 345.182 401.357 344.552 401.973 343.6L400.937 343.012C400.587 343.586 399.887 344.034 398.921 344.034C397.619 344.034 396.625 343.32 396.387 342.06ZM398.809 338.966C399.859 338.966 400.853 339.61 401.063 340.996H396.387C396.583 339.778 397.493 338.966 398.809 338.966ZM407.298 339.176V338H405.436V336.04L404.218 336.404V338H402.832V339.176H404.218V342.97C404.218 344.72 405.198 345.28 407.298 345V343.908C406.052 343.964 405.436 344.034 405.436 342.97V339.176H407.298ZM420.209 338L418.011 343.698L415.813 338H414.497L417.297 345H418.725L421.525 338H420.209ZM423.135 342.06H429.001C429.029 341.878 429.043 341.696 429.043 341.514C429.043 339.554 427.671 337.818 425.557 337.818C423.373 337.818 421.889 339.428 421.889 341.5C421.889 343.6 423.387 345.182 425.641 345.182C427.041 345.182 428.105 344.552 428.721 343.6L427.685 343.012C427.335 343.586 426.635 344.034 425.669 344.034C424.367 344.034 423.373 343.32 423.135 342.06ZM425.557 338.966C426.607 338.966 427.601 339.61 427.811 340.996H423.135C423.331 339.778 424.241 338.966 425.557 338.966ZM430.444 345H431.662V334.78H430.444V345ZM434.29 345.154C434.808 345.154 435.2 344.748 435.2 344.244C435.2 343.74 434.808 343.334 434.29 343.334C433.786 343.334 433.38 343.74 433.38 344.244C433.38 344.748 433.786 345.154 434.29 345.154ZM178.214 370.182C180.216 370.182 181.602 369.09 181.602 367.368C181.602 365.478 179.992 364.974 178.284 364.414C176.912 363.98 176.226 363.644 176.226 362.734C176.226 361.838 176.954 361.278 178.004 361.278C179.194 361.278 179.88 361.95 180.23 362.79L181.322 362.16C180.776 360.928 179.614 360.018 178.004 360.018C176.366 360.018 174.924 361.026 174.924 362.79C174.924 364.61 176.436 365.1 178.004 365.604C179.446 366.052 180.314 366.388 180.314 367.396C180.314 368.278 179.628 368.908 178.242 368.908C176.814 368.908 175.974 368.208 175.624 367.13L174.504 367.774C175.022 369.244 176.352 370.182 178.214 370.182ZM187.848 363V366.71C187.848 368.362 186.938 369.02 185.818 369.02C184.74 369.02 184.082 368.376 184.082 367.228V363H182.864V367.298C182.864 369.09 183.942 370.182 185.58 370.182C186.56 370.182 187.33 369.818 187.848 368.992V370H189.066V363H187.848ZM191.956 364.89C191.956 364.26 192.572 363.952 193.202 363.952C193.818 363.952 194.434 364.218 194.7 364.848L195.722 364.274C195.274 363.364 194.35 362.818 193.202 362.818C191.788 362.818 190.724 363.672 190.724 364.904C190.724 367.438 194.644 366.584 194.644 368.082C194.644 368.768 194 369.034 193.258 369.034C192.39 369.034 191.746 368.614 191.522 367.942L190.472 368.544C190.878 369.51 191.858 370.182 193.258 370.182C194.756 370.182 195.876 369.384 195.876 368.082C195.876 365.506 191.956 366.388 191.956 364.89ZM201.183 362.818C199.993 362.818 199.097 363.35 198.537 364.204V363H197.319V372.8H198.537V368.796C199.097 369.65 199.993 370.182 201.183 370.182C203.129 370.182 204.725 368.572 204.725 366.5C204.725 364.428 203.129 362.818 201.183 362.818ZM201.029 369.006C199.615 369.006 198.537 367.928 198.537 366.5C198.537 365.072 199.615 363.994 201.029 363.994C202.429 363.994 203.507 365.072 203.507 366.5C203.507 367.928 202.429 369.006 201.029 369.006ZM207.032 367.06H212.898C212.926 366.878 212.94 366.696 212.94 366.514C212.94 364.554 211.568 362.818 209.454 362.818C207.27 362.818 205.786 364.428 205.786 366.5C205.786 368.6 207.284 370.182 209.538 370.182C210.938 370.182 212.002 369.552 212.618 368.6L211.582 368.012C211.232 368.586 210.532 369.034 209.566 369.034C208.264 369.034 207.27 368.32 207.032 367.06ZM209.454 363.966C210.504 363.966 211.498 364.61 211.708 365.996H207.032C207.228 364.778 208.138 363.966 209.454 363.966ZM217.826 362.818C216.846 362.818 216.076 363.182 215.558 364.008V363H214.34V370H215.558V366.29C215.558 364.638 216.468 363.98 217.588 363.98C218.666 363.98 219.324 364.624 219.324 365.772V370H220.542V365.702C220.542 363.91 219.464 362.818 217.826 362.818ZM228.038 360.2V364.204C227.478 363.35 226.582 362.818 225.392 362.818C223.446 362.818 221.85 364.428 221.85 366.5C221.85 368.572 223.446 370.182 225.392 370.182C226.582 370.182 227.478 369.65 228.038 368.796V370H229.256V360.2H228.038ZM225.546 369.006C224.146 369.006 223.068 367.928 223.068 366.5C223.068 365.072 224.146 363.994 225.546 363.994C226.96 363.994 228.038 365.072 228.038 366.5C228.038 367.928 226.96 369.006 225.546 369.006ZM231.718 361.726C232.166 361.726 232.53 361.362 232.53 360.914C232.53 360.466 232.166 360.088 231.718 360.088C231.256 360.088 230.892 360.466 230.892 360.914C230.892 361.362 231.256 361.726 231.718 361.726ZM231.102 370H232.32V363H231.102V370ZM235.214 364.89C235.214 364.26 235.83 363.952 236.46 363.952C237.076 363.952 237.692 364.218 237.958 364.848L238.98 364.274C238.532 363.364 237.608 362.818 236.46 362.818C235.046 362.818 233.982 363.672 233.982 364.904C233.982 367.438 237.902 366.584 237.902 368.082C237.902 368.768 237.258 369.034 236.516 369.034C235.648 369.034 235.004 368.614 234.78 367.942L233.73 368.544C234.136 369.51 235.116 370.182 236.516 370.182C238.014 370.182 239.134 369.384 239.134 368.082C239.134 365.506 235.214 366.388 235.214 364.89ZM241.189 364.89C241.189 364.26 241.805 363.952 242.435 363.952C243.051 363.952 243.667 364.218 243.933 364.848L244.955 364.274C244.507 363.364 243.583 362.818 242.435 362.818C241.021 362.818 239.957 363.672 239.957 364.904C239.957 367.438 243.877 366.584 243.877 368.082C243.877 368.768 243.233 369.034 242.491 369.034C241.623 369.034 240.979 368.614 240.755 367.942L239.705 368.544C240.111 369.51 241.091 370.182 242.491 370.182C243.989 370.182 245.109 369.384 245.109 368.082C245.109 365.506 241.189 366.388 241.189 364.89ZM247.214 367.06H253.08C253.108 366.878 253.122 366.696 253.122 366.514C253.122 364.554 251.75 362.818 249.636 362.818C247.452 362.818 245.968 364.428 245.968 366.5C245.968 368.6 247.466 370.182 249.72 370.182C251.12 370.182 252.184 369.552 252.8 368.6L251.764 368.012C251.414 368.586 250.714 369.034 249.748 369.034C248.446 369.034 247.452 368.32 247.214 367.06ZM249.636 363.966C250.686 363.966 251.68 364.61 251.89 365.996H247.214C247.41 364.778 248.32 363.966 249.636 363.966ZM261.886 362.818C260.696 362.818 259.8 363.35 259.24 364.204V363H258.022V372.8H259.24V368.796C259.8 369.65 260.696 370.182 261.886 370.182C263.832 370.182 265.428 368.572 265.428 366.5C265.428 364.428 263.832 362.818 261.886 362.818ZM261.732 369.006C260.318 369.006 259.24 367.928 259.24 366.5C259.24 365.072 260.318 363.994 261.732 363.994C263.132 363.994 264.21 365.072 264.21 366.5C264.21 367.928 263.132 369.006 261.732 369.006ZM270.171 370.182C272.215 370.182 273.867 368.572 273.867 366.5C273.867 364.428 272.215 362.818 270.171 362.818C268.127 362.818 266.489 364.428 266.489 366.5C266.489 368.572 268.127 370.182 270.171 370.182ZM270.171 368.992C268.785 368.992 267.707 367.914 267.707 366.5C267.707 365.086 268.785 364.008 270.171 364.008C271.571 364.008 272.649 365.086 272.649 366.5C272.649 367.914 271.571 368.992 270.171 368.992ZM278.961 364.176V363H277.099V361.04L275.881 361.404V363H274.495V364.176H275.881V367.97C275.881 369.72 276.861 370.28 278.961 370V368.908C277.715 368.964 277.099 369.034 277.099 367.97V364.176H278.961ZM280.901 367.06H286.767C286.795 366.878 286.809 366.696 286.809 366.514C286.809 364.554 285.437 362.818 283.323 362.818C281.139 362.818 279.655 364.428 279.655 366.5C279.655 368.6 281.153 370.182 283.407 370.182C284.807 370.182 285.871 369.552 286.487 368.6L285.451 368.012C285.101 368.586 284.401 369.034 283.435 369.034C282.133 369.034 281.139 368.32 280.901 367.06ZM283.323 363.966C284.373 363.966 285.367 364.61 285.577 365.996H280.901C281.097 364.778 282.007 363.966 283.323 363.966ZM291.695 362.818C290.715 362.818 289.945 363.182 289.427 364.008V363H288.209V370H289.427V366.29C289.427 364.638 290.337 363.98 291.457 363.98C292.535 363.98 293.193 364.624 293.193 365.772V370H294.411V365.702C294.411 363.91 293.333 362.818 291.695 362.818ZM299.92 364.176V363H298.058V361.04L296.84 361.404V363H295.454V364.176H296.84V367.97C296.84 369.72 297.82 370.28 299.92 370V368.908C298.674 368.964 298.058 369.034 298.058 367.97V364.176H299.92ZM301.978 361.726C302.426 361.726 302.79 361.362 302.79 360.914C302.79 360.466 302.426 360.088 301.978 360.088C301.516 360.088 301.152 360.466 301.152 360.914C301.152 361.362 301.516 361.726 301.978 361.726ZM301.361 370H302.58V363H301.361V370ZM305.208 370.154C305.726 370.154 306.118 369.748 306.118 369.244C306.118 368.74 305.726 368.334 305.208 368.334C304.704 368.334 304.298 368.74 304.298 369.244C304.298 369.748 304.704 370.154 305.208 370.154Z" fill="#343549"/>
<rect x="313" y="402" width="123" height="50" rx="10" fill="#ED5D6D"/>
<rect x="174" y="402" width="123" height="50" rx="10" fill="#FDEFF0"/>
<path d="M360.762 420.8H356.362V432H360.762C363.85 432 366.122 429.52 366.122 426.4C366.122 423.264 363.85 420.8 360.762 420.8ZM360.762 430.24H358.202V422.56H360.762C362.89 422.56 364.346 424.176 364.346 426.4C364.346 428.608 362.89 430.24 360.762 430.24ZM374.024 424V425.136C373.416 424.304 372.472 423.792 371.224 423.792C369.048 423.792 367.24 425.616 367.24 428C367.24 430.368 369.048 432.208 371.224 432.208C372.472 432.208 373.416 431.696 374.024 430.848V432H375.752V424H374.024ZM371.496 430.56C370.056 430.56 368.968 429.488 368.968 428C368.968 426.512 370.056 425.44 371.496 425.44C372.936 425.44 374.024 426.512 374.024 428C374.024 429.488 372.936 430.56 371.496 430.56ZM377.766 432H379.494V420.32H377.766V432ZM382.86 428.736H389.228C389.26 428.512 389.292 428.256 389.292 428.016C389.292 425.712 387.66 423.792 385.276 423.792C382.764 423.792 381.052 425.632 381.052 428C381.052 430.4 382.764 432.208 385.404 432.208C386.972 432.208 388.172 431.552 388.908 430.464L387.484 429.632C387.1 430.192 386.38 430.624 385.42 430.624C384.14 430.624 383.132 429.984 382.86 428.736ZM382.844 427.328C383.084 426.128 383.964 425.36 385.26 425.36C386.3 425.36 387.308 425.952 387.548 427.328H382.844ZM391.887 422.8C392.495 422.8 392.991 422.288 392.991 421.696C392.991 421.088 392.495 420.592 391.887 420.592C391.279 420.592 390.783 421.088 390.783 421.696C390.783 422.288 391.279 422.8 391.887 422.8ZM391.023 432.32C391.023 433.44 390.527 433.84 389.471 433.744V435.408C391.663 435.568 392.751 434.528 392.751 432.32V424H391.023V432.32Z" fill="white"/>
<path d="M220.479 432.208C222.543 432.208 224.367 431.152 225.295 429.52L223.695 428.608C223.119 429.712 221.887 430.416 220.479 430.416C218.062 430.416 216.463 428.704 216.463 426.4C216.463 424.096 218.062 422.384 220.479 422.384C221.887 422.384 223.102 423.088 223.695 424.192L225.295 423.264C224.351 421.632 222.527 420.592 220.479 420.592C217.071 420.592 214.623 423.152 214.623 426.4C214.623 429.648 217.071 432.208 220.479 432.208ZM230.472 432.208C232.824 432.208 234.696 430.368 234.696 428C234.696 425.616 232.824 423.792 230.472 423.792C228.136 423.792 226.248 425.616 226.248 428C226.248 430.368 228.136 432.208 230.472 432.208ZM230.472 430.528C229.064 430.528 227.976 429.456 227.976 428C227.976 426.544 229.064 425.472 230.472 425.472C231.88 425.472 232.968 426.544 232.968 428C232.968 429.456 231.88 430.528 230.472 430.528ZM240.169 422.256V420.592C237.769 420.432 236.553 421.68 236.553 423.84V424H235.337V425.664H236.553V432H238.281V425.664H240.169V424H238.281V423.84C238.281 422.608 238.953 422.144 240.169 422.256ZM245.388 423.792C244.3 423.792 243.436 424.192 242.908 425.024V424H241.18V432H242.908V427.712C242.908 426.08 243.804 425.408 244.94 425.408C246.028 425.408 246.732 426.048 246.732 427.264V432H248.46V427.088C248.46 425.008 247.18 423.792 245.388 423.792ZM251.185 422.8C251.793 422.8 252.289 422.288 252.289 421.696C252.289 421.088 251.793 420.592 251.185 420.592C250.577 420.592 250.081 421.088 250.081 421.696C250.081 422.288 250.577 422.8 251.185 422.8ZM250.321 432H252.049V424H250.321V432ZM255.067 422.8C255.675 422.8 256.171 422.288 256.171 421.696C256.171 421.088 255.675 420.592 255.067 420.592C254.459 420.592 253.963 421.088 253.963 421.696C253.963 422.288 254.459 422.8 255.067 422.8ZM254.203 432.32C254.203 433.44 253.707 433.84 252.651 433.744V435.408C254.843 435.568 255.931 434.528 255.931 432.32V424H254.203V432.32Z" fill="#ED5D6D"/>
<rect x="406" y="190" width="30" height="30" rx="15" fill="#FDEFF0"/>
<path d="M247.52 178.718L262.186 173.629C266.461 182.846 269.315 192.588 270.841 202.821L260.118 222.602L261.032 225.867H220.353C205.639 225.532 174.337 230.861 174 197.876C174.048 191.922 179.434 183.328 183.665 174.925L222.228 176.27L213.188 202.197C232.037 195.283 241.991 204.982 251.896 214.68L247.52 178.718Z" fill="white"/>
<path d="M181.646 179.295L212.371 185.345L210.111 194.707C209.486 200.085 211.698 202.39 215.977 202.486C229.2 203.83 238.529 207.143 251.944 214.729L247.569 178.719L262.234 173.63C257.858 161.482 251.175 157.113 244.443 152.792L220.401 149.383C209.198 149.719 198.234 150.631 191.887 161.53L181.646 179.295Z" fill="#FDEFF0"/>
<path d="M220.401 149.333L224.055 157.159L226.027 161.24L227.302 163.283L228.942 163.745L231.29 163.115L236.028 154.999L238.673 154.471L242.471 153.99L244.443 152.79L246.222 149.765L246.318 145.78L243.145 131.28L235.259 127.535L231.46 135.265L227.998 140.163C227.998 140.115 224.536 149.045 220.401 149.333Z" fill="white"/>
<path d="M244.443 152.789C244.876 153.029 245.26 153.317 245.693 153.557C255.166 159.031 257.666 163.448 261.993 173.003C266.513 182.989 269.013 192.928 270.889 202.819" stroke="black"/>
<path d="M197.705 154.805C195.638 156.293 193.714 158.358 192.031 161.238L180.539 180.924C174.673 191.103 171.932 197.536 175.971 209.444C180.203 221.255 188.911 226 203.48 226" stroke="black" stroke-linecap="round" stroke-linejoin="round"/>
<path d="M241.173 136.609L242.76 145.779L239.971 145.587" stroke="black" stroke-linecap="round" stroke-linejoin="round"/>
<path d="M237.807 132.48L236.942 132.913" stroke="black" stroke-linecap="round"/>
<path d="M228.72 138.867C232.807 136.995 233.432 137.907 233.672 135.026L233.961 131.906C234.298 128.977 235.019 126.625 238.721 127.153" stroke="black" stroke-linecap="round" stroke-linejoin="round"/>
<path d="M239.539 127.439C239.731 127.487 242.376 129.887 242.376 129.887L243.145 132.24C242.808 132.912 235.596 128.063 235.596 128.063L236.269 127.295C236.269 127.295 239.394 127.391 239.539 127.439ZM235.259 127.487L233.865 133.536L233.24 137.089L228.527 138.769L231.893 130.656L235.259 127.487Z" fill="#020306"/>
<path d="M243.146 132.241C239.876 131.185 236.75 129.553 234.058 126.336" stroke="black" stroke-linecap="round"/>
<path d="M235.884 126L235.548 126.96" stroke="black" stroke-linecap="round"/>
<path d="M260.166 222.603C260.166 220.443 257.329 218.714 255.598 217.513C252.617 215.449 249.492 213.576 246.607 212.04C231.124 203.782 224.536 203.83 214.775 202.101C207.082 200.901 209.534 196.868 213.717 181.264" stroke="black" stroke-linecap="round" stroke-linejoin="round"/>
<path d="M251.944 214.728C250.453 197.924 247.568 178.719 247.568 178.719" stroke="black" stroke-linecap="round"/>
<path d="M232.614 160.041L236.028 155L229.152 152.695L232.614 160.041Z" fill="#020306"/>
<path d="M181.646 179.293L212.371 185.342" stroke="black" stroke-linecap="round"/>
<path d="M262.234 173.582L247.568 178.719" stroke="black" stroke-linecap="round"/>
<path d="M274.158 196.723L257.306 225.867H296.543L313.395 196.723H274.158Z" fill="white"/>
<path d="M245.202 140.994C244.433 141.439 243.935 142.249 243.935 143.162C243.935 144.393 244.799 145.397 245.963 145.614L245.202 140.994Z" fill="#EE5D6E"/>
<path d="M241.869 218.221C241.869 218.221 248.361 220.189 251.823 222.973C253.89 224.462 253.217 225.998 250.765 225.998H238.888" stroke="black" stroke-linecap="round" stroke-linejoin="round"/>
<path d="M247.351 216.207C247.351 216.207 253.313 219.04 256.775 221.776C258.843 223.265 258.313 226.001 255.861 226.001" stroke="black" stroke-linecap="round" stroke-linejoin="round"/>
<path d="M219.896 149.277C219.896 149.277 223.912 157.592 226.364 161.769C227.699 164.046 230.502 164.394 232.024 161.889L236.266 154.675" stroke="black" stroke-linecap="round" stroke-linejoin="round"/>
<path d="M220.255 196.037C227.158 195.234 234.437 193.237 241.945 190.234" stroke="black" stroke-linecap="round"/>
<path d="M235.621 143.258C235.621 144.651 234.515 145.755 233.121 145.755C231.726 145.755 230.62 144.651 230.62 143.258C230.62 141.866 231.726 140.762 233.121 140.762C234.467 140.762 235.621 141.866 235.621 143.258Z" fill="#EE5D6E"/>
<path d="M382 226H174" stroke="black" stroke-linecap="round"/>
<path d="M238.859 148.028C237.733 148.028 236.627 147.732 235.652 147.17C234.677 146.608 233.867 145.8 233.304 144.826" stroke="black" stroke-linecap="round" stroke-linejoin="round"/>
<path d="M237.739 138.222L237.763 136.609" stroke="black" stroke-linecap="round"/>
<path d="M197.706 154.807C203.764 150.534 211.986 149.237 219.872 149.237C225.498 149.093 228.624 138.194 231.076 133.585C232.759 129.072 233.576 127.199 237.038 126.959C242.76 126.911 243.722 132.049 244.539 137.09L245.838 144.196C247.232 152.022 244.01 155.335 235.74 154.471C233.865 154.279 231.797 153.847 229.152 152.694L232.663 160.04" stroke="black" stroke-linecap="round" stroke-linejoin="round"/>
<path d="M288.408 208.758C288.253 208.756 288.087 208.801 287.933 208.885C287.779 208.97 287.643 209.092 287.543 209.234L284.93 212.855C284.859 212.951 284.806 213.054 284.773 213.159C284.74 213.264 284.728 213.369 284.739 213.468C284.749 213.566 284.781 213.657 284.833 213.734C284.884 213.81 284.954 213.872 285.039 213.915C285.124 213.959 285.222 213.982 285.328 213.985C285.433 213.988 285.543 213.969 285.652 213.931C285.76 213.894 285.866 213.836 285.962 213.763C286.058 213.69 286.142 213.603 286.209 213.506L288.822 209.884C288.911 209.764 288.972 209.632 288.998 209.499C289.026 209.367 289.018 209.239 288.978 209.127C288.936 209.014 288.863 208.922 288.763 208.858C288.663 208.793 288.542 208.759 288.408 208.758Z" fill="#ED5D6D"/>
<path d="M286.202 203.979C283.74 203.979 281.213 205.961 280.557 208.406C280.419 208.928 280.376 209.446 280.428 209.935L280.422 209.939L281.573 218.609L291.314 215.14L291.34 213.553L283.063 216.484L282.231 210.153C282.143 209.592 282.038 208.981 282.185 208.406C282.602 206.854 284.206 205.596 285.768 205.596C287.33 205.596 288.258 206.854 287.843 208.406C287.72 208.856 287.521 209.31 287.204 209.708C287.34 209.871 287.453 210.038 287.602 210.237C287.766 210.456 287.91 210.715 288.047 210.916C288.928 209.854 289.308 209.218 289.471 208.406C290.127 205.961 288.663 203.979 286.202 203.979Z" fill="#ED5D6D"/>
<path d="M292.405 206.723C292.002 206.786 291.618 207.119 291.509 207.52C291.41 207.892 291.58 208.212 291.912 208.302C292.013 208.322 292.125 208.352 292.213 208.381C293.272 208.735 293.823 209.806 293.483 211.07C293.205 212.103 292.378 213.052 291.331 213.541L291.34 213.55L291.192 213.603C291.061 213.658 290.928 213.705 290.795 213.744L287.447 214.929C287.988 215.283 288.65 215.477 289.375 215.493L290.713 215.328C292.78 214.794 294.578 213.053 295.112 211.07C295.668 208.999 294.723 207.27 292.922 206.786C292.753 206.741 292.589 206.695 292.405 206.723Z" fill="#ED5D6D"/>
<path d="M285.27 207.385C284.696 207.385 284.106 207.847 283.953 208.418C283.857 208.778 283.963 209.46 284.128 209.929C284.348 210.556 284.561 210.492 285.031 209.971C285.436 209.518 285.926 208.8 286.033 208.418C286.186 207.847 285.845 207.385 285.27 207.385Z" fill="#ED5D6D"/>
<path d="M274.158 196.723L257.306 225.867H296.543L313.395 196.723H274.158Z" stroke="black" stroke-linecap="round"/>
<path d="M177.152 253.8L174.208 254.84L174.656 256.408L176.912 255.768V265H178.752V253.8H177.152ZM182.001 265.192C182.657 265.192 183.201 264.648 183.201 263.992C183.201 263.32 182.657 262.792 182.001 262.792C181.329 262.792 180.801 263.32 180.801 263.992C180.801 264.648 181.329 265.192 182.001 265.192Z" fill="#ED5D6D"/>
<path d="M190.991 263.24V253.8H189.151V265H195.551V263.24H190.991ZM200.331 265.208C202.683 265.208 204.555 263.368 204.555 261C204.555 258.616 202.683 256.792 200.331 256.792C197.995 256.792 196.107 258.616 196.107 261C196.107 263.368 197.995 265.208 200.331 265.208ZM200.331 263.528C198.923 263.528 197.835 262.456 197.835 261C197.835 259.544 198.923 258.472 200.331 258.472C201.739 258.472 202.827 259.544 202.827 261C202.827 262.456 201.739 263.528 200.331 263.528ZM207.845 258.344V257H206.117V265H207.845V260.968C207.845 259.176 209.173 258.648 210.309 258.728V256.856C209.301 256.856 208.325 257.256 207.845 258.344ZM212.571 261.736H218.939C218.971 261.512 219.003 261.256 219.003 261.016C219.003 258.712 217.371 256.792 214.987 256.792C212.475 256.792 210.763 258.632 210.763 261C210.763 263.4 212.475 265.208 215.115 265.208C216.683 265.208 217.883 264.552 218.619 263.464L217.195 262.632C216.811 263.192 216.091 263.624 215.131 263.624C213.851 263.624 212.843 262.984 212.571 261.736ZM212.555 260.328C212.795 259.128 213.675 258.36 214.971 258.36C216.011 258.36 217.019 258.952 217.259 260.328H212.555ZM229.26 256.792C228.188 256.792 227.34 257.224 226.812 258.056C226.348 257.256 225.58 256.792 224.54 256.792C223.548 256.792 222.764 257.176 222.252 257.96V257H220.524V265H222.252V260.52C222.252 259.064 223.052 258.408 224.028 258.408C224.972 258.408 225.532 259.032 225.532 260.152V265H227.26V260.52C227.26 259.064 227.98 258.408 229.004 258.408C229.948 258.408 230.556 259.032 230.556 260.152V265H232.284V260.04C232.284 258.04 231.068 256.792 229.26 256.792ZM238.245 253.8V265H240.085V253.8H238.245ZM246.739 256.792C245.491 256.792 244.547 257.304 243.939 258.152V257H242.211V268.2H243.939V263.864C244.547 264.696 245.491 265.208 246.739 265.208C248.915 265.208 250.723 263.384 250.723 261C250.723 258.632 248.915 256.792 246.739 256.792ZM246.467 263.56C245.027 263.56 243.939 262.488 243.939 261C243.939 259.512 245.027 258.44 246.467 258.44C247.907 258.44 248.995 259.512 248.995 261C248.995 262.488 247.907 263.56 246.467 263.56ZM253.685 259.208C253.685 258.632 254.229 258.36 254.853 258.36C255.509 258.36 256.069 258.648 256.357 259.272L257.813 258.456C257.253 257.4 256.165 256.792 254.853 256.792C253.221 256.792 251.925 257.736 251.925 259.24C251.925 262.104 256.229 261.304 256.229 262.728C256.229 263.368 255.637 263.624 254.869 263.624C253.989 263.624 253.349 263.192 253.093 262.472L251.605 263.336C252.117 264.488 253.269 265.208 254.869 265.208C256.597 265.208 257.989 264.344 257.989 262.744C257.989 259.784 253.685 260.664 253.685 259.208ZM264.806 257V261.288C264.806 262.92 263.91 263.592 262.774 263.592C261.686 263.592 260.982 262.952 260.982 261.736V257H259.254V261.912C259.254 263.992 260.534 265.208 262.326 265.208C263.414 265.208 264.278 264.808 264.806 263.976V265H266.534V257H264.806ZM277.291 256.792C276.219 256.792 275.371 257.224 274.843 258.056C274.379 257.256 273.611 256.792 272.571 256.792C271.579 256.792 270.795 257.176 270.283 257.96V257H268.555V265H270.283V260.52C270.283 259.064 271.083 258.408 272.059 258.408C273.003 258.408 273.563 259.032 273.563 260.152V265H275.291V260.52C275.291 259.064 276.011 258.408 277.035 258.408C277.979 258.408 278.587 259.032 278.587 260.152V265H280.315V260.04C280.315 258.04 279.099 256.792 277.291 256.792ZM292.5 253.8V258.136C291.892 257.304 290.948 256.792 289.7 256.792C287.524 256.792 285.716 258.616 285.716 261C285.716 263.368 287.524 265.208 289.7 265.208C290.948 265.208 291.892 264.696 292.5 263.848V265H294.228V253.8H292.5ZM289.972 263.56C288.532 263.56 287.444 262.488 287.444 261C287.444 259.512 288.532 258.44 289.972 258.44C291.412 258.44 292.5 259.512 292.5 261C292.5 262.488 291.412 263.56 289.972 263.56ZM300.018 265.208C302.37 265.208 304.242 263.368 304.242 261C304.242 258.616 302.37 256.792 300.018 256.792C297.682 256.792 295.794 258.616 295.794 261C295.794 263.368 297.682 265.208 300.018 265.208ZM300.018 263.528C298.61 263.528 297.522 262.456 297.522 261C297.522 259.544 298.61 258.472 300.018 258.472C301.426 258.472 302.514 259.544 302.514 261C302.514 262.456 301.426 263.528 300.018 263.528ZM305.805 265H307.533V253.32H305.805V265ZM313.315 265.208C315.667 265.208 317.539 263.368 317.539 261C317.539 258.616 315.667 256.792 313.315 256.792C310.979 256.792 309.091 258.616 309.091 261C309.091 263.368 310.979 265.208 313.315 265.208ZM313.315 263.528C311.907 263.528 310.819 262.456 310.819 261C310.819 259.544 311.907 258.472 313.315 258.472C314.723 258.472 315.811 259.544 315.811 261C315.811 262.456 314.723 263.528 313.315 263.528ZM320.83 258.344V257H319.102V265H320.83V260.968C320.83 259.176 322.158 258.648 323.294 258.728V256.856C322.286 256.856 321.31 257.256 320.83 258.344ZM330.123 259.208C330.123 258.632 330.667 258.36 331.291 258.36C331.947 258.36 332.507 258.648 332.795 259.272L334.251 258.456C333.691 257.4 332.603 256.792 331.291 256.792C329.659 256.792 328.363 257.736 328.363 259.24C328.363 262.104 332.667 261.304 332.667 262.728C332.667 263.368 332.075 263.624 331.307 263.624C330.427 263.624 329.787 263.192 329.531 262.472L328.043 263.336C328.555 264.488 329.707 265.208 331.307 265.208C333.035 265.208 334.427 264.344 334.427 262.744C334.427 259.784 330.123 260.664 330.123 259.208ZM336.716 255.8C337.324 255.8 337.82 255.288 337.82 254.696C337.82 254.088 337.324 253.592 336.716 253.592C336.108 253.592 335.612 254.088 335.612 254.696C335.612 255.288 336.108 255.8 336.716 255.8ZM335.852 265H337.58V257H335.852V265ZM344.05 258.664V257H342.066V254.76L340.338 255.272V257H338.866V258.664H340.338V262.504C340.338 264.584 341.394 265.32 344.05 265V263.448C342.738 263.512 342.066 263.528 342.066 262.504V258.664H344.05Z" fill="#343549"/>
<path d="M418 202L424 208" stroke="#ED5D6D" stroke-width="2" stroke-linecap="round"/>
<path d="M424 202L418 208" stroke="#ED5D6D" stroke-width="2" stroke-linecap="round"/>
</g>
<defs>
<filter id="filter0_d" x="0" y="0.499756" width="610" height="650.5" filterUnits="userSpaceOnUse" color-interpolation-filters="sRGB">
<feFlood flood-opacity="0" result="BackgroundImageFix"/>
<feColorMatrix in="SourceAlpha" type="matrix" values="0 0 0 0 0 0 0 0 0 0 0 0 0 0 0 0 0 0 127 0" result="hardAlpha"/>
<feOffset dy="25"/>
<feGaussianBlur stdDeviation="75"/>
<feColorMatrix type="matrix" values="0 0 0 0 0.654902 0 0 0 0 0.694118 0 0 0 0 0.784314 0 0 0 0.1 0"/>
<feBlend mode="normal" in2="BackgroundImageFix" result="effect1_dropShadow"/>
<feBlend mode="normal" in="SourceGraphic" in2="effect1_dropShadow" result="shape"/>
</filter>
</defs>
</svg>
