<svg width="312" height="197" viewBox="0 0 312 197" fill="none" xmlns="http://www.w3.org/2000/svg">
<path opacity="0.1" d="M116.981 3C101.748 3.01115 86.9078 7.84608 74.5797 16.8145C62.2517 25.7828 53.066 38.4261 48.3342 52.9388C21.7019 63.7612 3 89.9051 3 120.608C3 161.055 35.4417 193.617 75.7386 193.617H236.01C276.307 193.617 308.749 161.055 308.749 120.608C308.749 89.8862 290.024 63.7284 263.365 52.9181C258.633 38.4172 249.453 25.7841 237.135 16.8204C224.817 7.85673 209.99 3.02004 194.768 3C180.957 3.00098 167.435 6.9682 155.803 14.432C144.213 6.99417 130.744 3.02805 116.981 3V3Z" stroke="#343549" stroke-width="6" stroke-linecap="round" stroke-linejoin="round"/>
</svg>
