<svg width="150" height="34" viewBox="0 0 150 34" fill="none" xmlns="http://www.w3.org/2000/svg">
<g opacity="0.1">
<rect x="5" width="145" height="34" rx="8" fill="#ED5D6D"/>
<path d="M1.44326 18.1666C0.700494 17.5662 0.700494 16.4338 1.44326 15.8334L5.05707 12.9124C6.03798 12.1196 7.5 12.8177 7.5 14.079L7.5 19.921C7.5 21.1823 6.03798 21.8804 5.05707 21.0876L1.44326 18.1666Z" fill="#ED5D6D"/>
</g>
<path d="M23.416 22.208C25.48 22.208 27.304 21.152 28.232 19.52L26.632 18.608C26.056 19.712 24.824 20.416 23.416 20.416C21 20.416 19.4 18.704 19.4 16.4C19.4 14.096 21 12.384 23.416 12.384C24.824 12.384 26.04 13.088 26.632 14.192L28.232 13.264C27.288 11.632 25.464 10.592 23.416 10.592C20.008 10.592 17.56 13.152 17.56 16.4C17.56 19.648 20.008 22.208 23.416 22.208ZM33.409 22.208C35.761 22.208 37.633 20.368 37.633 18C37.633 15.616 35.761 13.792 33.409 13.792C31.073 13.792 29.185 15.616 29.185 18C29.185 20.368 31.073 22.208 33.409 22.208ZM33.409 20.528C32.001 20.528 30.913 19.456 30.913 18C30.913 16.544 32.001 15.472 33.409 15.472C34.817 15.472 35.905 16.544 35.905 18C35.905 19.456 34.817 20.528 33.409 20.528ZM43.4035 13.792C42.3155 13.792 41.4515 14.192 40.9235 15.024V14H39.1955V22H40.9235V17.712C40.9235 16.08 41.8195 15.408 42.9555 15.408C44.0435 15.408 44.7475 16.048 44.7475 17.264V22H46.4755V17.088C46.4755 15.008 45.1955 13.792 43.4035 13.792ZM52.8001 15.664V14H50.8161V11.76L49.0881 12.272V14H47.6161V15.664H49.0881V19.504C49.0881 21.584 50.1441 22.32 52.8001 22V20.448C51.4881 20.512 50.8161 20.528 50.8161 19.504V15.664H52.8001ZM60.3753 14V15.136C59.7673 14.304 58.8233 13.792 57.5753 13.792C55.3993 13.792 53.5913 15.616 53.5913 18C53.5913 20.368 55.3993 22.208 57.5753 22.208C58.8233 22.208 59.7673 21.696 60.3753 20.848V22H62.1033V14H60.3753ZM57.8473 20.56C56.4073 20.56 55.3193 19.488 55.3193 18C55.3193 16.512 56.4073 15.44 57.8473 15.44C59.2873 15.44 60.3753 16.512 60.3753 18C60.3753 19.488 59.2873 20.56 57.8473 20.56ZM67.8934 22.208C69.4614 22.208 70.8214 21.392 71.4934 20.128L70.0054 19.28C69.6214 20.016 68.8374 20.512 67.8774 20.512C66.4694 20.512 65.3974 19.44 65.3974 18C65.3974 16.56 66.4694 15.488 67.8774 15.488C68.8374 15.488 69.6214 15.968 69.9734 16.72L71.4614 15.856C70.8214 14.608 69.4614 13.792 67.8934 13.792C65.4774 13.792 63.6694 15.616 63.6694 18C63.6694 20.368 65.4774 22.208 67.8934 22.208ZM77.2064 15.664V14H75.2224V11.76L73.4944 12.272V14H72.0224V15.664H73.4944V19.504C73.4944 21.584 74.5504 22.32 77.2064 22V20.448C75.8944 20.512 75.2224 20.528 75.2224 19.504V15.664H77.2064ZM92.0678 14L90.4998 19.52L88.8358 14H87.1878L85.5078 19.52L83.9557 14H82.1318L84.6438 22H86.3398L88.0198 16.608L89.6838 22H91.3798L93.8918 14H92.0678ZM96.0283 12.8C96.6363 12.8 97.1323 12.288 97.1323 11.696C97.1323 11.088 96.6363 10.592 96.0283 10.592C95.4203 10.592 94.9243 11.088 94.9243 11.696C94.9243 12.288 95.4203 12.8 96.0283 12.8ZM95.1643 22H96.8923V14H95.1643V22ZM103.363 15.664V14H101.379V11.76L99.6506 12.272V14H98.1786V15.664H99.6506V19.504C99.6506 21.584 100.707 22.32 103.363 22V20.448C102.051 20.512 101.379 20.528 101.379 19.504V15.664H103.363ZM109.138 13.792C108.05 13.792 107.186 14.192 106.658 15.024V10.8H104.93V22H106.658V17.712C106.658 16.08 107.554 15.408 108.69 15.408C109.778 15.408 110.482 16.048 110.482 17.264V22H112.21V17.088C112.21 15.008 110.93 13.792 109.138 13.792ZM123.463 14V18.288C123.463 19.92 122.567 20.592 121.431 20.592C120.343 20.592 119.639 19.952 119.639 18.736V14H117.911V18.912C117.911 20.992 119.191 22.208 120.983 22.208C122.071 22.208 122.935 21.808 123.463 20.976V22H125.191V14H123.463ZM128.716 16.208C128.716 15.632 129.26 15.36 129.884 15.36C130.54 15.36 131.1 15.648 131.388 16.272L132.844 15.456C132.284 14.4 131.196 13.792 129.884 13.792C128.252 13.792 126.956 14.736 126.956 16.24C126.956 19.104 131.26 18.304 131.26 19.728C131.26 20.368 130.668 20.624 129.9 20.624C129.02 20.624 128.38 20.192 128.124 19.472L126.636 20.336C127.148 21.488 128.3 22.208 129.9 22.208C131.628 22.208 133.02 21.344 133.02 19.744C133.02 16.784 128.716 17.664 128.716 16.208ZM134.891 18.48H136.251L136.619 14V10.8H134.539V14L134.891 18.48ZM135.579 22.192C136.235 22.192 136.779 21.648 136.779 20.992C136.779 20.32 136.235 19.792 135.579 19.792C134.907 19.792 134.379 20.32 134.379 20.992C134.379 21.648 134.907 22.192 135.579 22.192Z" fill="#ED5D6D"/>
</svg>
