<svg width="34" height="34" viewBox="0 0 34 34" fill="none" xmlns="http://www.w3.org/2000/svg">
<path d="M31.9993 5.64885C31.9993 7.65571 30.448 9.29763 28.3492 9.29763C26.3418 9.29763 24.7906 7.74693 24.7906 5.64885C24.7906 3.64196 26.3418 2 28.3492 2C30.448 2 31.9993 3.64196 31.9993 5.64885Z" stroke="#343549" stroke-width="2.3"/>
<path d="M28.3947 9.39453V23.3575C28.3947 28.1459 24.5386 32.0008 19.7488 32.0008C14.959 32.0008 11.103 28.1459 11.103 23.3575V20.2253" stroke="#343549" stroke-width="2.3" stroke-miterlimit="7" stroke-linecap="round"/>
<path d="M16.3185 2.03125C18.4762 2.03125 20.2131 3.74623 20.2131 5.87655L20.2128 10.8442C20.2128 15.8802 16.2409 19.9478 11.1065 19.9478C5.97219 19.9478 2.00032 15.9771 2.00032 10.8442L2 5.87655C2 3.74623 3.7369 2.03125 5.89458 2.03125" stroke="#343549" stroke-width="2.3" stroke-linecap="round"/>
</svg>
