<svg width="34" height="34" viewBox="0 0 34 34" fill="none" xmlns="http://www.w3.org/2000/svg">
<path d="M12.8315 31.0844C11.6259 32.2899 9.69647 32.3013 8.50586 31.1109L3.63905 26.244C1.45361 24.0586 1.45369 20.5403 3.63905 18.3549C5.55225 16.4418 8.48764 16.2035 10.6555 17.6397C12.8232 16.2032 15.7576 16.4404 17.6707 18.3536C19.8561 20.539 19.8575 24.0586 17.6721 26.244L12.8315 31.0844Z" stroke="white" stroke-width="2.2" stroke-linecap="round" stroke-linejoin="round"/>
<path d="M22.8091 12.3179C19.9238 12.3179 17.5859 10.0082 17.5859 7.15894C17.5859 4.30979 19.9238 2 22.8091 2C25.6943 2 28.0331 4.30979 28.0331 7.15894C28.0331 10.0082 25.6943 12.3179 22.8091 12.3179Z" stroke="white" stroke-width="2.2"/>
<path d="M32 27.0052V21.6235C32 18.9125 29.7902 16.7299 27.0451 16.7299H22.8108" stroke="white" stroke-width="2.2" stroke-linecap="round"/>
</svg>
