<svg width="655" height="603" viewBox="0 0 655 603" fill="none" xmlns="http://www.w3.org/2000/svg">
<path d="M290.995 304.047L283.66 305.189L278.348 311.9L271.779 317.944L254.945 317.217L244.439 322.539L187.49 396.217L271.444 480.259L313.566 450.344L343.5 457.536L346.983 458.689L353.692 454.81L360.406 458.689L363.895 457.536L393.824 450.344L435.945 480.259L519.899 396.217L462.95 322.534L452.45 317.217L435.61 317.944L429.046 311.9L423.735 305.184L416.394 304.047L404.882 304.3L395.378 312.102L388.44 307.339L379.332 304.551L372.243 308.861L353.698 330.358L335.152 308.861L328.063 304.551L318.956 307.339L312.017 312.102L302.507 304.3L290.995 304.047ZM330.797 335.183L348.861 345.33L353.698 338.507L358.528 345.33L376.592 335.183L378.789 340.628L380.467 343.556L386.158 345.839L392.029 344.927V351.195L396.68 357.285L402.584 357.822L408.024 356.35L411.082 363.442L412.598 375.978L409.182 391.806L358.327 443.477L353.837 448.446L353.697 449.28L353.557 448.446L349.062 443.482L298.207 391.812L294.79 375.978L296.311 363.442L299.37 356.35L304.809 357.822L310.713 357.29L315.365 351.201V344.933L321.23 345.839L326.927 343.561L328.604 340.628L330.797 335.183Z" fill="#F9F9F9"/>
<path d="M330.79 335.185L328.604 340.63L323.773 345.287L315.365 344.929V351.197L310.713 357.286L304.809 357.824L299.386 356.352L294.969 369.823L297.116 387.554L306.598 398.838L353.534 448.14L353.556 448.448L353.696 448.303L353.835 448.448V448.157L400.788 398.837L410.27 387.554L412.417 369.823L408 356.351L402.577 357.823L396.673 357.286L392.021 351.196V344.928L383.613 345.286L378.782 340.63L376.596 335.184L348.865 345.331L349.01 348.527L330.79 335.185Z" fill="#FBD4D9"/>
<path d="M213.772 230.241L192.197 236.672L164.36 245.537L145.132 256.177L130.713 265.546L109.457 282.012L81.1777 315.912L69.3697 337.404L58.635 362.657L14.0867 479.072L5.85682 499.31L3.88867 513.28V529.936L6.39349 545.339L13.1921 561.279L20.885 572.92L31.083 583.129L52.2781 596.086L72.3888 599.505L95.5408 599.629L108.825 595.829L122.489 587.853L139.256 576.088H376.625L376.877 524.983L453.668 553.936L473.169 560.563L495.712 561.279L519.328 555.548L534.273 546.442L544.392 537.319L552.739 527.446L559.068 514.78L564.631 502.876L566.404 488.945V476.028L564.128 462.349L559.068 448.67L549.703 433.978L519.904 396.217L435.945 480.259L393.84 450.344L376.625 455L362.346 458.829L354.541 454.318L346.982 458.689L313.588 450.344L271.6 480.628L271.442 480.259L187.489 396.217L244.438 322.539L251.527 318.61L263.732 316.327L225.825 277.317L217.864 267.556L214.286 258.063L213.447 249.59L213.772 230.241ZM323.819 255.948C323.819 255.948 301.82 269.256 288.735 269.391L280.187 309.465L293.778 303.157L305.67 305.06L312.016 312.101L318.954 307.338L328.062 304.551L335.151 308.86L354.378 331.147L372.443 307.315L379.062 303.913L395.377 312.101L361.529 277.943L323.819 255.948Z" fill="#FBD4D9"/>
<path d="M288.735 269.391L278.939 306.137L275.5 313.353L268.413 315.254L261.935 316.008L255.998 308.75L217.731 269.577L214.414 254.677L213.953 243.657L214.899 203.152L213.972 157.119L232.06 121.456L288.207 125.622L329.102 197.105L338.124 218.741L337.208 235.459L330.41 249.13L322.057 256.09L312.548 263.623L288.735 269.391Z" fill="white"/>
<path d="M313.97 169.203C311.567 171.173 309.781 173.795 308.826 176.754C307.871 179.714 307.788 182.886 308.585 185.892C309.135 187.947 310.083 189.873 311.376 191.561C312.669 193.249 314.281 194.666 316.121 195.73C317.961 196.794 319.992 197.485 322.098 197.764C324.205 198.042 326.345 197.902 328.398 197.352C328.634 197.276 328.869 197.194 329.102 197.107L313.97 169.203Z" fill="#EE5D6E"/>
<path d="M290.954 212.37L307.065 208.048L282.766 155.56L302.838 150.176" stroke="black" stroke-width="6" stroke-miterlimit="6" stroke-linecap="round" stroke-linejoin="round"/>
<path d="M288.207 125.624C265.782 130.531 239.653 130.742 213.615 119.874" stroke="black" stroke-width="6" stroke-miterlimit="6" stroke-linecap="round"/>
<path d="M248.474 207.577C257.104 205.262 262.226 196.38 259.913 187.739C257.6 179.098 248.728 173.969 240.098 176.284C231.467 178.599 226.346 187.481 228.659 196.122C230.972 204.764 239.843 209.892 248.474 207.577Z" fill="#EE5D6E"/>
<path d="M287.134 228.323C276.004 228.088 269.129 223.263 264.371 215.814" stroke="black" stroke-width="6" stroke-miterlimit="6" stroke-linecap="round" stroke-linejoin="round"/>
<path d="M229.92 118.748L234.631 156.32C235.182 160.682 232.68 164.858 228.58 166.428L214.922 171.662" stroke="black" stroke-width="6" stroke-miterlimit="6" stroke-linecap="round" stroke-linejoin="round"/>
<path d="M301.234 168.475L299.053 164.695" stroke="black" stroke-width="6" stroke-miterlimit="6" stroke-linecap="round"/>
<path d="M217.77 114.343L226.122 134.88" stroke="black" stroke-width="6" stroke-miterlimit="6" stroke-linecap="round" stroke-linejoin="round"/>
<path d="M214.922 171.661L226.519 167.467L231.892 164.357L234.998 159.352L234.453 152.823L230.53 124.672L240.912 127.821L257.266 128.719L269.569 128.665L288.208 125.625L281.398 115.943L273.556 108.961L266.468 104.279L258.474 102.437L248.38 103.476L238.011 106.257L228.412 112.262L221.818 120.15L217.63 130.451L215.924 139.994L214.707 148.943L214.922 171.661Z" fill="black"/>
<path d="M238.393 258.45L280.305 300.407L288.737 269.391L271.427 269.016L255.729 266.147L238.393 258.45Z" fill="black"/>
<path d="M313.59 450.343L126.47 585.254C97.1725 606.314 57.3106 604.667 29.8492 581.257C5.17394 560.224 -3.54352 525.882 8.1052 495.606L63.2303 352.365C84.7682 296.398 131.317 253.804 188.931 237.34L213.77 230.241" stroke="black" stroke-width="6" stroke-miterlimit="6" stroke-linecap="round"/>
<path d="M187.488 396.214L90.6914 465.811" stroke="black" stroke-width="6" stroke-miterlimit="6" stroke-linecap="round"/>
<path d="M433.026 349.563L403.945 357.468C400.792 358.322 397.422 357.424 395.114 355.105C390.876 350.86 391.806 343.737 396.992 340.73L433.114 319.772C444.293 313.287 458.53 316.117 466.399 326.383L519.904 396.217" stroke="black" stroke-width="6" stroke-miterlimit="6" stroke-linecap="round" stroke-linejoin="round"/>
<path d="M396.992 340.73L391.415 343.982C388.363 345.759 384.595 345.767 381.536 344.003C375.902 340.751 374.892 333.013 379.503 328.417L398.479 309.498C406.439 301.56 419.304 301.58 427.24 309.552L435.611 317.944" stroke="black" stroke-width="6" stroke-miterlimit="6" stroke-linecap="round"/>
<path d="M376.596 335.187L368.082 341.495C365.537 343.403 362.165 343.81 359.24 342.564C353.853 340.261 352.132 333.468 355.776 328.881L370.769 309.997C377.057 302.074 388.16 304.678 395.378 312.105" stroke="black" stroke-width="6" stroke-miterlimit="6" stroke-linecap="round"/>
<path d="M274.368 349.563L303.449 357.468C306.602 358.322 309.972 357.424 312.28 355.105C316.518 350.86 315.588 343.737 310.402 340.73L274.28 319.772C263.101 313.287 248.864 316.117 240.995 326.383L187.49 396.217" stroke="black" stroke-width="6" stroke-miterlimit="6" stroke-linecap="round" stroke-linejoin="round"/>
<path d="M310.401 340.73L315.979 343.982C319.03 345.759 322.798 345.767 325.857 344.003C331.491 340.751 332.502 333.013 327.89 328.417L308.915 309.498C300.954 301.56 288.089 301.58 280.154 309.552L271.782 317.944" stroke="black" stroke-width="6" stroke-miterlimit="6" stroke-linecap="round"/>
<path d="M330.798 335.187L339.312 341.495C341.857 343.403 345.229 343.81 348.154 342.564C353.541 340.261 355.262 333.468 351.618 328.881L336.626 309.997C330.337 302.074 319.234 304.678 312.016 312.105" stroke="black" stroke-width="6" stroke-miterlimit="6" stroke-linecap="round"/>
<path d="M393.816 450.347L364.046 458.141C361.298 458.829 358.321 458.141 356.26 456.078C353.053 452.869 353.053 447.596 356.26 444.387L399.999 401.747L402.163 399.58C413.602 388.129 415.999 370.439 408.014 356.355" stroke="black" stroke-width="6" stroke-miterlimit="6" stroke-linecap="round" stroke-linejoin="round"/>
<path d="M313.567 450.347L343.337 458.141C346.085 458.829 349.063 458.141 351.124 456.078C354.33 452.868 354.33 447.596 351.124 444.386L307.384 401.746L305.22 399.58C293.781 388.129 291.384 370.439 299.369 356.355" stroke="black" stroke-width="6" stroke-miterlimit="6" stroke-linecap="round" stroke-linejoin="round"/>
<path d="M414.934 412.913C422.22 400.546 434.221 391.521 448.296 387.825" stroke="black" stroke-width="6" stroke-miterlimit="6" stroke-linecap="round" stroke-linejoin="round"/>
<path d="M187.49 396.214L258.847 467.647L271.446 480.259" stroke="black" stroke-width="6" stroke-miterlimit="6" stroke-linecap="round" stroke-linejoin="round"/>
<path d="M393.801 450.345L435.946 480.261" stroke="black" stroke-width="6" stroke-miterlimit="6" stroke-linecap="round"/>
<path d="M519.903 396.214L448.546 467.647L435.947 480.259" stroke="black" stroke-width="6" stroke-miterlimit="6" stroke-linecap="round" stroke-linejoin="round"/>
<path d="M376.877 524.98L460.102 556.565C493.846 569.317 531.924 557.398 552.398 527.671C570.794 500.961 571.588 465.352 552.509 439.126L519.903 396.214" stroke="black" stroke-width="6" stroke-miterlimit="6" stroke-linecap="round"/>
<path d="M376.626 455V576.087H139.254" stroke="black" stroke-width="6" stroke-miterlimit="6" stroke-linecap="round"/>
<path d="M395.379 312.103L373.707 290.323C365.337 281.911 355.909 274.63 345.669 268.664L323.82 255.947" stroke="black" stroke-width="6" stroke-miterlimit="6" stroke-linecap="round"/>
<path d="M353.695 338.506L343.072 343.694L353.695 351.955L364.318 343.694L353.695 338.506Z" fill="black"/>
<path d="M263.733 316.325L224.785 277.695C217.542 270.413 213.529 260.501 213.664 250.228C214.079 218.579 214.627 190.035 214.714 158.478C215.031 127.776 220.193 114.288 239.995 105.891C273.171 93.4321 286.422 121.681 302.726 149.822L325.549 189.031C339.045 211.992 341.796 230.241 333.64 244.058C316.799 273.258 269.907 276.106 238.392 258.452L281.541 301.267M288.737 269.393L280.186 309.464L288.737 269.393Z" stroke="black" stroke-width="6" stroke-miterlimit="6" stroke-linecap="round" stroke-linejoin="round"/>
<path d="M140.679 353.525L120.637 333.461" stroke="black" stroke-width="6" stroke-miterlimit="6" stroke-linecap="round"/>
<path d="M157.567 343.763L150.231 316.356" stroke="black" stroke-width="6" stroke-miterlimit="6" stroke-linecap="round"/>
<path d="M435.947 480.26L462.086 498.814" stroke="black" stroke-width="6" stroke-miterlimit="6" stroke-linecap="round"/>
<path d="M330.795 335.184L350.318 349.451C352.329 350.922 355.058 350.922 357.069 349.451L376.596 335.184" stroke="black" stroke-width="6" stroke-miterlimit="6" stroke-linecap="round" stroke-linejoin="round"/>
<path d="M327.664 381.91L348.239 402.506L379.727 370.985" stroke="#EE5D6E" stroke-width="10" stroke-miterlimit="6" stroke-linecap="round" stroke-linejoin="round"/>
<path d="M272.406 176.06L270.242 172.31" stroke="black" stroke-width="6" stroke-miterlimit="6" stroke-linecap="round"/>
<path d="M255.752 162.806L270.172 158.938" stroke="black" stroke-width="6" stroke-miterlimit="6" stroke-linecap="round" stroke-linejoin="round"/>
<path d="M630.975 26.382C615.297 9.36962 593.785 0 570.397 0C552.915 0 536.904 5.52968 522.81 16.4343C515.698 21.9387 509.253 28.673 503.571 36.533C497.892 28.6753 491.445 21.9387 484.331 16.4343C470.238 5.52968 454.228 0 436.746 0C413.358 0 391.844 9.36962 376.166 26.382C360.676 43.1955 352.143 66.1653 352.143 91.0632C352.143 116.689 361.688 140.147 382.181 164.887C400.513 187.018 426.861 209.484 457.373 235.498C467.792 244.382 479.601 254.452 491.864 265.179C495.103 268.018 499.26 269.581 503.571 269.581C507.881 269.581 512.04 268.018 515.275 265.184C527.537 254.455 539.354 244.38 549.777 235.491C580.284 209.481 606.632 187.018 624.965 164.885C645.458 140.147 655 116.689 655 91.0607C655 66.1653 646.467 43.1955 630.975 26.382Z" fill="#EE5D6E"/>
<path d="M441.309 111.207L488.939 160.638L561.835 84.9877" stroke="white" stroke-width="10" stroke-miterlimit="6" stroke-linecap="round" stroke-linejoin="round"/>
</svg>
