<svg width="149" height="40" viewBox="0 0 149 40" fill="none" xmlns="http://www.w3.org/2000/svg">
<path d="M103.059 33.3635C103.059 33.4742 103.025 33.5738 102.958 33.6624C102.892 33.7399 102.775 33.8063 102.608 33.8616C102.452 33.917 102.24 33.9557 101.973 33.9779C101.705 34.0111 101.366 34.0277 100.954 34.0277C100.541 34.0277 100.202 34.0111 99.9343 33.9779C99.667 33.9557 99.4498 33.917 99.2828 33.8616C99.1269 33.8063 99.0155 33.7399 98.9487 33.6624C98.8818 33.5738 98.8484 33.4742 98.8484 33.3635V19.8263C98.8484 19.7156 98.8821 19.6215 98.9487 19.544C99.0155 19.4554 99.1269 19.3835 99.2828 19.3282C99.4498 19.2617 99.667 19.2119 99.9343 19.1787C100.202 19.1455 100.541 19.1289 100.954 19.1289C101.366 19.1289 101.705 19.1455 101.973 19.1787C102.24 19.2119 102.452 19.2617 102.608 19.3282C102.775 19.3835 102.892 19.4554 102.958 19.544C103.025 19.6215 103.059 19.7156 103.059 19.8263V33.3635Z" fill="#343549"/>
<path d="M70.6994 33.398C70.6994 33.5199 70.6772 33.6252 70.6325 33.7139C70.5877 33.7915 70.4821 33.858 70.3151 33.9134C70.148 33.9688 69.9029 34.0076 69.5799 34.0297C69.2569 34.0519 68.8169 34.063 68.26 34.063C67.7922 34.063 67.4191 34.0519 67.1406 34.0297C66.8621 34.0075 66.6394 33.9688 66.4723 33.9134C66.3164 33.8469 66.205 33.7693 66.1382 33.6806C66.0713 33.5809 66.0156 33.4645 65.971 33.3316L64.033 28.5275C63.7991 27.9845 63.5708 27.5024 63.3481 27.0813C63.1253 26.6602 62.8747 26.3111 62.5962 26.0341C62.3289 25.7459 62.0169 25.5298 61.6605 25.3858C61.3041 25.2417 60.892 25.1697 60.4242 25.1697H59.0542V33.3648C59.0542 33.4756 59.0152 33.5754 58.9373 33.664C58.8704 33.7527 58.7535 33.8247 58.5865 33.8801C58.4194 33.9355 58.1966 33.9798 57.9181 34.0131C57.6396 34.0463 57.2833 34.063 56.8489 34.063C56.4256 34.063 56.0691 34.0463 55.7795 34.0131C55.501 33.9798 55.2783 33.9355 55.1113 33.8801C54.9442 33.8247 54.8272 33.7527 54.7603 33.664C54.6935 33.5754 54.6602 33.4756 54.6602 33.3648V13.8328C54.6602 13.3452 54.7826 12.9961 55.0277 12.7856C55.2838 12.5639 55.5958 12.4531 55.9634 12.4531H61.5604C62.1284 12.4531 62.5962 12.4642 62.9637 12.4864C63.3313 12.5085 63.6655 12.5362 63.9662 12.5695C64.835 12.6914 65.6147 12.9019 66.3053 13.2012C67.007 13.5004 67.5973 13.8938 68.0763 14.3814C68.5664 14.8579 68.9395 15.4286 69.1956 16.0935C69.4518 16.7474 69.5799 17.501 69.5799 18.3543C69.5799 19.0746 69.4852 19.734 69.2959 20.3324C69.1177 20.9197 68.8503 21.4461 68.4939 21.9116C68.1374 22.377 67.6974 22.7815 67.174 23.1251C66.6505 23.4686 66.0546 23.7456 65.3863 23.9562C65.7093 24.1114 66.0101 24.2997 66.2886 24.5214C66.5782 24.743 66.8454 25.0145 67.0905 25.3359C67.3467 25.6462 67.5862 26.0064 67.8089 26.4164C68.0317 26.8154 68.2488 27.2697 68.4605 27.7795L70.2817 32.0183C70.4487 32.4395 70.5601 32.7497 70.6158 32.9492C70.6715 33.1376 70.6994 33.2872 70.6994 33.398ZM65.0355 18.8031C65.0355 18.0938 64.874 17.4954 64.551 17.0078C64.228 16.5202 63.6989 16.1767 62.9637 15.9772C62.741 15.9218 62.4848 15.8775 62.1951 15.8442C61.9167 15.811 61.5269 15.7943 61.0257 15.7943H59.0542V21.895H61.293C61.9168 21.895 62.4625 21.8229 62.9304 21.6789C63.3982 21.5237 63.788 21.3132 64.0999 21.0472C64.4117 20.7701 64.6456 20.4432 64.8015 20.0664C64.9575 19.6896 65.0355 19.2685 65.0355 18.8031Z" fill="#343549"/>
<path d="M86.9516 25.5541C86.9516 26.0639 86.8346 26.4407 86.6007 26.6845C86.378 26.9283 86.0661 27.0502 85.6652 27.0502H76.5929C76.5929 27.6819 76.6654 28.2581 76.8102 28.779C76.9661 29.2888 77.2056 29.7265 77.5286 30.0922C77.8628 30.4468 78.286 30.7183 78.7983 30.9067C79.3218 31.0951 79.9456 31.1893 80.6696 31.1893C81.4047 31.1893 82.0508 31.1395 82.6077 31.0397C83.1646 30.9289 83.6436 30.8125 84.0445 30.6906C84.4567 30.5577 84.7964 30.4413 85.0637 30.3416C85.331 30.2307 85.5481 30.1753 85.7152 30.1753C85.8155 30.1753 85.8991 30.1975 85.9659 30.2418C86.0327 30.2751 86.0884 30.3416 86.133 30.4413C86.1777 30.541 86.2054 30.6851 86.2165 30.8735C86.2392 31.0508 86.2502 31.278 86.2502 31.555C86.2502 31.7988 86.2449 32.0094 86.2338 32.1867C86.2227 32.3529 86.2064 32.497 86.1837 32.6189C86.1611 32.7408 86.1278 32.8461 86.0835 32.9347C86.0387 33.0123 85.9777 33.0899 85.8997 33.1675C85.8329 33.245 85.638 33.3503 85.3149 33.4833C84.9919 33.6163 84.5799 33.7493 84.0786 33.8823C83.5774 34.0042 83.0037 34.1094 82.3577 34.1981C81.7117 34.2978 81.0211 34.3477 80.286 34.3477C78.9605 34.3477 77.7965 34.1815 76.7941 33.849C75.8028 33.5165 74.9731 33.0123 74.3048 32.3363C73.6365 31.6603 73.1352 30.807 72.801 29.7764C72.478 28.7458 72.3165 27.5378 72.3165 26.1526C72.3165 24.8338 72.4891 23.6481 72.8344 22.5953C73.1797 21.5314 73.681 20.6338 74.3382 19.9023C74.9953 19.1599 75.7917 18.5947 76.7273 18.2068C77.6741 17.8189 78.7378 17.625 79.9185 17.625C81.166 17.625 82.2296 17.8079 83.1095 18.1736C84.0006 18.5393 84.7302 19.049 85.2982 19.7029C85.8663 20.3456 86.284 21.1103 86.5514 21.9968C86.8187 22.8834 86.9523 23.8475 86.9523 24.8892L86.9516 25.5541ZM82.875 24.3573C82.9082 23.1826 82.6689 22.2628 82.1566 21.5979C81.6553 20.9219 80.8756 20.5839 79.8175 20.5839C79.2828 20.5839 78.8151 20.6836 78.4141 20.8831C78.0243 21.0826 77.6957 21.3541 77.4284 21.6976C77.1722 22.0301 76.9717 22.429 76.8269 22.8945C76.6933 23.3488 76.6152 23.8364 76.5929 24.3573H82.875Z" fill="#343549"/>
<path d="M94.6399 33.3982C94.6399 33.509 94.6068 33.6087 94.5397 33.6974C94.473 33.775 94.3559 33.8415 94.1888 33.8969C94.0329 33.9523 93.8213 33.9911 93.554 34.0132C93.2867 34.0465 92.9469 34.0631 92.5348 34.0631C92.1227 34.0631 91.783 34.0465 91.5156 34.0132C91.2483 33.9911 91.0311 33.9523 90.8641 33.8969C90.7082 33.8415 90.5968 33.775 90.53 33.6974C90.4631 33.6087 90.4297 33.509 90.4297 33.3982V11.539C90.4297 11.4282 90.4629 11.3285 90.53 11.2398C90.5968 11.1511 90.7082 11.0791 90.8641 11.0237C91.0311 10.9572 91.2483 10.9073 91.5156 10.8741C91.783 10.8408 92.1227 10.8242 92.5348 10.8242C92.9469 10.8242 93.2867 10.8408 93.554 10.8741C93.8213 10.9073 94.0329 10.9572 94.1888 11.0237C94.3559 11.0791 94.473 11.1511 94.5397 11.2398C94.6066 11.3285 94.6399 11.4282 94.6399 11.539V33.3982Z" fill="#343549"/>
<path d="M121.037 25.5541C121.037 26.0639 120.92 26.4407 120.687 26.6845C120.464 26.9283 120.152 27.0502 119.751 27.0502H110.679C110.679 27.6819 110.751 28.2581 110.896 28.779C111.052 29.2888 111.291 29.7265 111.614 30.0922C111.948 30.4468 112.372 30.7183 112.884 30.9067C113.408 31.0951 114.031 31.1893 114.755 31.1893C115.491 31.1893 116.137 31.1395 116.693 31.0397C117.25 30.9289 117.729 30.8125 118.13 30.6906C118.542 30.5577 118.882 30.4413 119.149 30.3416C119.417 30.2307 119.634 30.1753 119.801 30.1753C119.901 30.1753 119.985 30.1975 120.052 30.2418C120.119 30.2751 120.174 30.3416 120.219 30.4413C120.263 30.541 120.291 30.6851 120.302 30.8735C120.325 31.0508 120.336 31.278 120.336 31.555C120.336 31.7988 120.331 32.0094 120.32 32.1867C120.309 32.3529 120.292 32.497 120.27 32.6189C120.247 32.7408 120.214 32.8461 120.169 32.9347C120.124 33.0123 120.063 33.0899 119.986 33.1675C119.919 33.245 119.724 33.3503 119.401 33.4833C119.078 33.6163 118.666 33.7493 118.164 33.8823C117.663 34.0042 117.09 34.1094 116.444 34.1981C115.798 34.2978 115.107 34.3477 114.372 34.3477C113.046 34.3477 111.882 34.1815 110.88 33.849C109.889 33.5165 109.059 33.0123 108.39 32.3363C107.722 31.6603 107.221 30.807 106.887 29.7764C106.564 28.7458 106.402 27.5378 106.402 26.1526C106.402 24.8338 106.575 23.6481 106.92 22.5953C107.266 21.5314 107.767 20.6338 108.424 19.9023C109.081 19.1599 109.878 18.5947 110.813 18.2068C111.76 17.8189 112.824 17.625 114.004 17.625C115.252 17.625 116.315 17.8079 117.195 18.1736C118.086 18.5393 118.816 19.049 119.384 19.7029C119.952 20.3456 120.37 21.1103 120.637 21.9968C120.904 22.8834 121.038 23.8475 121.038 24.8892L121.037 25.5541ZM116.961 24.3573C116.994 23.1826 116.755 22.2628 116.242 21.5979C115.741 20.9219 114.961 20.5839 113.903 20.5839C113.369 20.5839 112.901 20.6836 112.5 20.8831C112.11 21.0826 111.781 21.3541 111.514 21.6976C111.258 22.0301 111.058 22.429 110.913 22.8945C110.779 23.3488 110.701 23.8364 110.679 24.3573H116.961Z" fill="#343549"/>
<path d="M133.231 12.9228C133.231 13.2442 133.22 13.5046 133.197 13.7041C133.175 13.8925 133.141 14.0421 133.097 14.1529C133.053 14.2526 133.002 14.3247 132.947 14.369C132.891 14.4022 132.83 14.4189 132.763 14.4189C132.685 14.4189 132.596 14.4022 132.496 14.369C132.407 14.3247 132.29 14.2803 132.145 14.236C132.011 14.1917 131.85 14.1529 131.66 14.1196C131.471 14.0753 131.248 14.0532 130.992 14.0532C130.691 14.0532 130.429 14.103 130.207 14.2028C129.995 14.2914 129.817 14.441 129.672 14.6516C129.527 14.8511 129.421 15.117 129.355 15.4495C129.288 15.7709 129.254 16.1698 129.254 16.6463V18.0094H131.978C132.078 18.0094 132.167 18.0371 132.245 18.0925C132.334 18.1479 132.407 18.2421 132.462 18.3751C132.518 18.497 132.557 18.6688 132.579 18.8904C132.612 19.1121 132.629 19.3836 132.629 19.705C132.629 20.3145 132.574 20.7522 132.462 21.0182C132.351 21.2731 132.189 21.4005 131.978 21.4005H129.254V33.4023C129.254 33.5131 129.221 33.6128 129.154 33.7015C129.087 33.7791 128.976 33.8455 128.82 33.901C128.664 33.9564 128.447 33.9951 128.168 34.0173C127.89 34.0506 127.55 34.0672 127.149 34.0672C126.748 34.0672 126.409 34.0506 126.13 34.0173C125.863 33.9951 125.646 33.9564 125.479 33.901C125.323 33.8455 125.211 33.7791 125.144 33.7015C125.089 33.6128 125.061 33.5131 125.061 33.4023V21.4005H123.19C122.978 21.4005 122.816 21.2731 122.705 21.0182C122.605 20.7522 122.555 20.3145 122.555 19.705C122.555 19.3836 122.566 19.1121 122.588 18.8904C122.622 18.6688 122.661 18.497 122.705 18.3751C122.761 18.2421 122.828 18.1479 122.906 18.0925C122.995 18.0371 123.095 18.0094 123.207 18.0094H125.061V16.7627C125.061 15.7542 125.161 14.8732 125.362 14.1196C125.562 13.355 125.874 12.7233 126.297 12.2246C126.732 11.7149 127.278 11.3325 127.935 11.0776C128.603 10.8228 129.388 10.6953 130.291 10.6953C130.725 10.6953 131.137 10.7341 131.527 10.8117C131.917 10.8782 132.223 10.9557 132.446 11.0444C132.669 11.122 132.819 11.1995 132.897 11.2771C132.975 11.3436 133.036 11.4489 133.081 11.593C133.136 11.7259 133.175 11.9032 133.198 12.1249C133.22 12.3354 133.231 12.6014 133.231 12.9228H133.231Z" fill="#343549"/>
<path d="M143.903 33.964L142.098 39.2169C141.998 39.4939 141.725 39.6934 141.28 39.8153C140.834 39.9372 140.182 39.9982 139.325 39.9982C138.879 39.9982 138.523 39.976 138.256 39.9317C137.988 39.8984 137.788 39.8375 137.654 39.7488C137.52 39.6602 137.448 39.5493 137.437 39.4164C137.426 39.2834 137.46 39.1227 137.537 38.9343L139.525 33.964C139.38 33.8975 139.247 33.7978 139.124 33.6648C139.013 33.5207 138.929 33.3711 138.874 33.216L133.744 19.5852C133.6 19.1973 133.527 18.9036 133.527 18.7041C133.527 18.4936 133.594 18.3329 133.728 18.2221C133.861 18.1002 134.084 18.0171 134.396 17.9727C134.719 17.9284 135.142 17.9062 135.666 17.9062C136.145 17.9062 136.524 17.9173 136.802 17.9395C137.08 17.9506 137.298 17.9894 137.454 18.0559C137.609 18.1224 137.726 18.2276 137.804 18.3717C137.882 18.5047 137.96 18.6986 138.038 18.9535L141.547 28.8774H141.597L144.805 18.754C144.872 18.4659 144.955 18.2775 145.055 18.1888C145.167 18.0891 145.345 18.0171 145.59 17.9728C145.835 17.9284 146.264 17.9063 146.877 17.9063C147.356 17.9063 147.751 17.9284 148.063 17.9728C148.386 18.0171 148.62 18.1002 148.765 18.2221C148.92 18.344 148.998 18.5102 148.998 18.7208C148.998 18.9203 148.954 19.1585 148.865 19.4356L143.903 33.964Z" fill="#343549"/>
<path d="M21.6934 13.0704C21.2659 13.067 20.847 13.1889 20.4887 13.421C20.1305 13.653 19.8487 13.9848 19.6788 14.3751L15.199 24.276C15.0758 24.5361 15.0058 24.818 14.9933 25.1053C14.9807 25.3926 15.0258 25.6795 15.1259 25.9492C15.226 26.219 15.379 26.4662 15.5762 26.6765C15.7733 26.8868 16.0106 27.0559 16.2741 27.174C16.5377 27.292 16.8223 27.3567 17.1112 27.3641C17.4001 27.3716 17.6876 27.3218 17.957 27.2175C18.2263 27.1132 18.4721 26.9566 18.68 26.7568C18.8878 26.557 19.0536 26.318 19.1676 26.0538L23.6474 16.1529C23.8019 15.8243 23.8708 15.4623 23.848 15.1001C23.8252 14.738 23.7112 14.3874 23.5167 14.0806C23.3222 13.7737 23.0533 13.5204 22.7347 13.3438C22.4161 13.1673 22.058 13.0733 21.6934 13.0704Z" fill="#ED5D6D"/>
<path d="M12.1672 0C5.44742 3.83287e-05 4.81544e-05 5.41992 0 12.1057C0.00674162 13.5329 0.267284 14.9477 0.769343 16.2847L0.752883 16.296L10.2463 39.9994L34.3008 30.5164L33.2086 26.1768L12.7606 34.1894L5.84872 16.8809C5.19878 15.3476 4.46272 13.6757 4.445 12.1057C4.44505 7.86244 7.90238 4.42262 12.1672 4.42259C16.432 4.42261 19.8893 7.86244 19.8893 12.1057C19.8845 13.3353 19.6727 14.5744 19.1024 15.6652C19.5905 16.1081 20.0236 16.5679 20.5747 17.1108C21.183 17.7101 21.7646 18.4162 22.286 18.9696C23.9151 16.0627 24.4871 14.325 24.3345 12.1057C24.3344 5.41992 18.887 3.24018e-05 12.1672 3.65531e-06V0Z" fill="#ED5D6D"/>
<path d="M31.1134 7.50794C30.0587 7.6786 29.2536 8.58914 29.2536 9.68675C29.2536 10.7035 29.9516 11.5771 30.9239 11.823C31.2144 11.8793 31.5433 11.9597 31.8033 12.0393C34.9538 13.0088 37.2432 15.9376 37.2432 19.3903C37.2384 22.2158 35.6789 24.8117 33.1776 26.1496L33.2085 26.1747L32.8431 26.318C32.5253 26.4681 32.1977 26.5966 31.8623 26.7023L23.5898 29.9437C25.3269 30.9125 27.2763 31.4422 29.267 31.4866L32.8 31.0357C38.0505 29.5737 41.6825 24.815 41.6881 19.3903C41.6881 13.7289 37.8423 9.00177 32.5701 7.68015C32.0779 7.55573 31.5963 7.43131 31.1134 7.50794Z" fill="#ED5D6D"/>
<path d="M12.1204 9.3125C10.5525 9.31256 9.28135 10.5772 9.28125 12.1373C9.28125 13.1227 10.0707 14.9892 10.8665 16.2679C11.9268 17.9835 12.4589 17.8081 13.3606 16.3839C14.1365 15.1459 14.9469 13.1809 14.9596 12.1373C14.9596 10.5772 13.6885 9.31248 12.1204 9.3125Z" fill="#ED5D6D"/>
</svg>
