<svg width="34" height="34" viewBox="0 0 34 34" fill="none" xmlns="http://www.w3.org/2000/svg">
<path d="M24.6137 17.2878C27.4969 17.2878 29.833 14.9876 29.833 12.15C29.833 9.31242 27.4969 7.01208 24.6137 7.01208C21.7306 7.01208 19.3936 9.31242 19.3936 12.15C19.3936 14.9876 21.7306 17.2878 24.6137 17.2878Z" stroke="white" stroke-width="2.2"/>
<path d="M9.39154 17.2878C12.2747 17.2878 14.6108 14.9876 14.6108 12.15C14.6108 9.31242 12.2747 7.01208 9.39154 7.01208C6.50844 7.01208 4.17139 9.31242 4.17139 12.15C4.17139 14.9876 6.50844 17.2878 9.39154 17.2878Z" stroke="white" stroke-width="2.2"/>
<path d="M32.0034 31.999V26.6392C32.0034 23.9392 29.7953 21.7656 27.0522 21.7656H21.9514" stroke="white" stroke-width="2.2" stroke-linecap="round"/>
<path d="M17.0032 31.999V26.6392C17.0032 23.9392 14.7951 21.7656 12.052 21.7656H6.95123C4.20816 21.7656 2 23.9392 2 26.6392V31.999" stroke="white" stroke-width="2.2" stroke-linecap="round"/>
<path d="M20.3372 2L17.0437 5.28243" stroke="white" stroke-width="2.2" stroke-linecap="round"/>
<path d="M15.0435 3.29395L17.044 5.28784" stroke="white" stroke-width="2.2" stroke-linecap="round"/>
</svg>
