<svg width="34" height="34" viewBox="0 0 34 34" fill="none" xmlns="http://www.w3.org/2000/svg">
<path d="M24.3111 24.6742C24.3111 22.2794 22.3831 20.3514 19.9882 20.3514H14.0074C11.6125 20.3514 9.68457 22.2794 9.68457 24.6742" stroke="#ED5D6D" stroke-width="2.3" stroke-linecap="round"/>
<path d="M16.9946 16.3566C19.5116 16.3566 21.5519 14.3163 21.5519 11.7994C21.5519 9.2825 19.5116 7.24219 16.9946 7.24219C14.4778 7.24219 12.4375 9.2825 12.4375 11.7994C12.4375 14.3163 14.4778 16.3566 16.9946 16.3566V16.3566Z" stroke="#ED5D6D" stroke-width="2.3"/>
<path d="M17 32C25.2843 32 32 25.2843 32 17C32 8.71574 25.2843 2 17 2C8.7157 2 2 8.71574 2 17C2 25.2843 8.7157 32 17 32Z" stroke="#ED5D6D" stroke-width="2.3" stroke-linecap="round"/>
</svg>
